<svg width="60" height="60" fill="none" xmlns="http://www.w3.org/2000/svg"><path d="M60 0H0v60h60V0z" fill="#fff"/><path d="M49.39 17.425c1.48.995 2.898 2.109 4.63 2.625-.876 1.62-1.082 3.45-1.438 5.231-.365 1.823-1.006 4.068-3.026 4.637-.003 0-.004.002-.007.003a.085.085 0 00-.033.021.086.086 0 00-.036-.034 2.93 2.93 0 01-.649-.424c1.342-.562 1.967-2.007 2.253-3.365.378-1.796.621-3.597 1.294-5.32a.105.105 0 00-.048-.12c-1.617-.707-3.028-1.734-4.482-2.716-1.212-.819-2.737-1.498-4.167-.917.019-.258.071-.513.157-.757a.09.09 0 00.002-.052.08.08 0 00.046-.01c1.868-1.04 3.937.145 5.504 1.198zm-6.273.584c-.28.665-1.127 1.333-1.792.666-.616-.616-.077-1.44.547-1.744.501-.244 1.075-.295 1.615-.418-.115.5-.17 1.02-.37 1.496zm-12.32-5.763c.271.667.145 1.738-.798 1.738-.87 0-1.071-.963-.846-1.619.182-.528.552-.97.847-1.44.273.436.602.843.797 1.321zm-12.789 4.637c.665.28 1.333 1.127.666 1.793-.615.615-1.439.076-1.743-.548-.245-.501-.296-1.075-.419-1.615.5.114 1.021.17 1.497.369zm-5.763 12.32c.667-.271 1.738-.145 1.738.798 0 .87-.963 1.071-1.62.846-.527-.182-.969-.552-1.438-.847.436-.273.843-.603 1.32-.798v.002zm4.636 12.789c.28-.665 1.127-1.333 1.793-.667.616.616.076 1.44-.547 1.744-.502.245-1.075.295-1.616.419.116-.502.171-1.022.371-1.497zm12.321 5.763c-.271-.667-.145-1.738.797-1.738.87 0 1.072.963.846 1.62-.18.527-.55.969-.846 1.438-.272-.437-.602-.844-.796-1.322v.002zm12.788-4.637c-.665-.279-1.333-1.126-.666-1.792.616-.616 1.44-.076 1.744.547.244.502.295 1.075.419 1.616-.5-.117-1.021-.172-1.496-.372v.002zm5.763-12.32c-.667.271-1.738.145-1.738-.797 0-.87.963-1.072 1.619-.846.528.181.97.55 1.44.846-.436.272-.843.6-1.321.796zM34.718 7.418c1.782-.357 3.61-.563 5.231-1.439.517 1.732 1.63 3.15 2.625 4.63 1.053 1.568 2.24 3.636 1.197 5.504a.077.077 0 00-.01.046.088.088 0 00-.052.002c-.244.086-.499.14-.757.159.583-1.431-.097-2.956-.916-4.169-.982-1.454-2.009-2.865-2.717-4.482a.105.105 0 00-.119-.048c-1.722.673-3.523.915-5.32 1.294-1.357.286-2.803.91-3.365 2.252a2.95 2.95 0 01-.424-.648.084.084 0 00-.034-.037.077.077 0 00.025-.039c.569-2.02 2.813-2.661 4.636-3.026zM17.425 10.61c.995-1.48 2.109-2.9 2.625-4.63 1.62.875 3.45 1.081 5.231 1.437 1.823.365 4.068 1.006 4.637 3.027a.078.078 0 00.024.038.085.085 0 00-.034.037 2.94 2.94 0 01-.424.649c-.562-1.342-2.007-1.967-3.366-2.253-1.796-.378-3.596-.62-5.32-1.294a.105.105 0 00-.119.049c-.708 1.616-1.735 3.027-2.716 4.482-.819 1.212-1.499 2.736-.917 4.166a2.92 2.92 0 01-.758-.157.09.09 0 00-.051-.001.078.078 0 00-.01-.046c-1.04-1.869.145-3.937 1.198-5.504zM5.98 20.05c1.73-.517 3.15-1.63 4.63-2.625 1.567-1.053 3.635-2.239 5.503-1.197a.08.08 0 00.046.01.088.088 0 00.002.052c.086.245.14.5.159.758-1.431-.583-2.956.097-4.169.915-1.454.982-2.865 2.01-4.482 2.717a.105.105 0 00-.048.12c.673 1.722.915 3.522 1.294 5.32.286 1.357.91 2.802 2.252 3.365-.196.17-.414.312-.648.424a.087.087 0 00-.037.034.076.076 0 00-.039-.025c-2.02-.57-2.662-2.814-3.026-4.636-.356-1.783-.562-3.611-1.437-5.232zM7.62 39.2a.105.105 0 00.049.118c1.617.709 3.028 1.735 4.482 2.717 1.212.819 2.736 1.498 4.167.917a2.91 2.91 0 01-.157.757.088.088 0 00-.002.052.08.08 0 00-.046.01c-1.868 1.042-3.936-.144-5.503-1.197-1.48-.995-2.9-2.108-4.63-2.625.875-1.62 1.081-3.449 1.438-5.23.364-1.824 1.005-4.068 3.026-4.637a.076.076 0 00.038-.025.086.086 0 00.037.034c.234.112.452.255.649.424-1.342.563-1.967 2.008-2.253 3.366l-1.294 5.318zm17.662 13.383c-1.782.356-3.61.562-5.231 1.438-.517-1.732-1.63-3.15-2.625-4.63-1.053-1.568-2.24-3.636-1.197-5.504a.078.078 0 00.01-.046.088.088 0 00.052-.002c.244-.086.499-.14.757-.159-.583 1.431.097 2.956.916 4.169.982 1.454 2.009 2.865 2.717 4.482a.105.105 0 00.119.048c1.722-.672 3.523-.915 5.32-1.294 1.358-.286 2.803-.91 3.366-2.252.169.196.311.414.423.648.008.016.02.029.035.037a.078.078 0 00-.025.039c-.57 2.02-2.815 2.661-4.638 3.025zm17.293-3.193c-.995 1.48-2.109 2.9-2.625 4.63-1.621-.875-3.45-1.081-5.231-1.437-1.824-.365-4.068-1.006-4.637-3.027a.077.077 0 00-.025-.038.083.083 0 00.035-.037c.112-.234.254-.452.423-.649.563 1.342 2.008 1.967 3.366 2.253 1.796.378 3.597.62 5.32 1.294a.105.105 0 00.118-.048c.709-1.617 1.735-3.029 2.717-4.483.819-1.212 1.498-2.736.917-4.166.258.018.513.071.757.157a.089.089 0 00.052.001.077.077 0 00.01.046c1.04 1.868-.145 3.936-1.198 5.504zm11.445-9.44c-1.731.517-3.15 1.63-4.63 2.624-1.567 1.053-3.635 2.24-5.503 1.198a.08.08 0 00-.046-.01.09.09 0 00-.002-.052 2.946 2.946 0 01-.159-.758c1.43.584 2.956-.096 4.169-.915 1.454-.982 2.865-2.009 4.482-2.717a.105.105 0 00.048-.12c-.673-1.722-.916-3.522-1.294-5.318-.286-1.359-.91-2.804-2.252-3.366a2.93 2.93 0 01.648-.424.085.085 0 00.036-.034c.004.005.01.009.015.012a.075.075 0 00.019.01c.002 0 .003.002.005.003l.009.002c2.013.574 2.653 2.814 3.017 4.635.356 1.78.562 3.608 1.438 5.23z" fill="#6750D6"/><path d="M48.384 11.615c-.186 1.793.294 3.53.65 5.273l-.123-.075c-1.443-.87-3.247-1.63-4.868-.857.774-1.62.013-3.425-.857-4.868l-.075-.123c1.743.357 3.48.836 5.273.65zM30 4c1.135 1.4 2.703 2.289 4.188 3.27-.09.02-.178.043-.266.065-1.594.408-3.34 1.155-3.922 2.803-.582-1.648-2.329-2.395-3.923-2.803a17.59 17.59 0 00-.265-.065C27.296 6.289 28.865 5.4 30 4zm-18.385 7.615c1.793.186 3.53-.293 5.273-.65l-.075.123c-.87 1.443-1.63 3.247-.857 4.868-1.62-.774-3.425-.013-4.868.857l-.123.075c.357-1.744.837-3.48.65-5.273zM4 30c1.4-1.135 2.289-2.704 3.27-4.188l.065.265C7.743 27.671 8.49 29.418 10.14 30c-1.649.581-2.396 2.327-2.804 3.922l-.065.266C6.289 32.703 5.4 31.135 4 30zm7.615 18.384c.186-1.793-.293-3.53-.65-5.273l.123.075c1.443.87 3.248 1.631 4.868.857-.774 1.621-.013 3.425.857 4.868l.075.123c-1.742-.357-3.48-.836-5.273-.65zM30 56c-1.135-1.4-2.704-2.29-4.188-3.27.089-.021.177-.043.265-.066 1.594-.408 3.341-1.155 3.923-2.803.581 1.648 2.328 2.395 3.922 2.803.088.023.177.045.266.066-1.485.98-3.053 1.87-4.188 3.27zm18.384-7.616c-1.793-.186-3.53.293-5.273.65.026-.04.05-.082.075-.123.87-1.443 1.631-3.247.857-4.868 1.621.774 3.425.013 4.868-.857l.123-.075c-.357 1.743-.836 3.48-.65 5.273zm4.346-14.196a16.083 16.083 0 00-.065-.266c-.408-1.594-1.155-3.34-2.803-3.922 1.648-.582 2.395-2.329 2.803-3.923.023-.088.044-.177.065-.265.98 1.484 1.87 3.053 3.27 4.188-1.4 1.135-2.29 2.703-3.27 4.188z" fill="#190A4E"/><path d="M41.92 22.27c.91.61 1.782 1.295 2.847 1.613-.539.996-.665 2.12-.885 3.216-.224 1.12-.618 2.5-1.86 2.85l-.004.002a.05.05 0 00-.02.014.054.054 0 00-.022-.021 1.809 1.809 0 01-.399-.26c.825-.347 1.21-1.235 1.386-2.07.232-1.104.381-2.21.795-3.27a.064.064 0 00-.03-.073c-.994-.436-1.861-1.067-2.755-1.67-.745-.503-1.682-.921-2.561-.564a1.8 1.8 0 01.096-.465.05.05 0 00.001-.032c.01 0 .02-.002.028-.006 1.148-.641 2.42.088 3.383.735zm-3.856.358c-.172.408-.692.82-1.102.41-.379-.379-.047-.885.336-1.072.32-.123.654-.21.993-.258-.049.313-.125.62-.227.92zm-7.574-3.543c.167.41.09 1.069-.49 1.069-.535 0-.658-.592-.52-.996a4.5 4.5 0 01.52-.885c.187.256.35.528.49.812zm-7.861 2.85c.408.172.82.693.41 1.103-.38.378-.886.046-1.072-.337a4.477 4.477 0 01-.258-.993c.313.05.62.125.919.227zm-3.543 7.574c.41-.166 1.068-.09 1.068.49 0 .536-.59.659-.995.52a4.48 4.48 0 01-.885-.52c.256-.186.527-.35.811-.49h.001zm2.85 7.862c.172-.409.692-.82 1.102-.41.379.379.047.885-.336 1.071a4.5 4.5 0 01-.993.258c.049-.312.125-.62.227-.919zm7.574 3.542c-.166-.41-.09-1.068.49-1.068.536 0 .658.591.52.995a4.49 4.49 0 01-.52.885 5.5 5.5 0 01-.49-.811zm7.862-2.85c-.409-.171-.82-.692-.41-1.102.379-.378.885-.047 1.071.337.124.32.21.653.258.993a5.509 5.509 0 01-.92-.227zm3.542-7.573c-.41.166-1.068.089-1.068-.49 0-.536.59-.659.995-.52.314.139.611.313.885.52-.256.186-.527.35-.812.49zm.48-10.917l.003.05a4.676 4.676 0 01-.004-.05h.002zm-.966-.967l-.05-.003.05.003zM32.9 16.117c1.096-.219 2.22-.346 3.216-.884.318 1.064 1.002 1.937 1.614 2.846.646.964 1.376 2.236.736 3.384a.048.048 0 00-.007.028.056.056 0 00-.032.001c-.15.053-.307.086-.466.098.359-.88-.06-1.817-.563-2.563-.603-.894-1.235-1.761-1.67-2.755a.065.065 0 00-.074-.03c-1.059.414-2.166.563-3.27.796-.834.175-1.723.56-2.068 1.385a1.805 1.805 0 01-.26-.399.051.051 0 00-.022-.022.048.048 0 00.015-.024c.35-1.243 1.73-1.637 2.85-1.861h.001zm-8.09-.605l-.048-.015.046.014h.001zm-1.364.532l-.024.046.022-.046h.002zM22.27 18.08c.611-.91 1.296-1.782 1.613-2.846.997.538 2.12.665 3.216.884 1.121.224 2.5.618 2.85 1.86a.06.06 0 00.016.024.052.052 0 00-.021.023 1.807 1.807 0 01-.26.398c-.346-.824-1.235-1.209-2.07-1.385-1.103-.233-2.21-.382-3.269-.796a.064.064 0 00-.074.03c-.435.994-1.066 1.862-1.67 2.756-.503.745-.921 1.682-.564 2.561a1.795 1.795 0 01-.465-.096.055.055 0 00-.032-.001c0-.01-.001-.02-.006-.029-.642-1.148.087-2.42.734-3.383h.002zm-7.037 5.804c1.065-.317 1.937-1.002 2.847-1.613.963-.647 2.235-1.377 3.383-.736a.05.05 0 00.028.006.053.053 0 000 .032c.053.15.086.307.098.466-.88-.359-1.817.06-2.563.563-.893.604-1.761 1.235-2.755 1.67a.064.064 0 00-.03.074c.414 1.059.563 2.166.796 3.27.176.835.56 1.723 1.385 2.069-.12.104-.255.191-.398.26a.052.052 0 00-.023.021.047.047 0 00-.024-.015c-1.242-.351-1.636-1.73-1.86-2.851-.22-1.096-.347-2.22-.885-3.216h.001zm2.847 13.847c-.91-.611-1.782-1.296-2.847-1.613.538-.997.665-2.12.884-3.216.224-1.121.618-2.5 1.86-2.851a.047.047 0 00.024-.015.045.045 0 00.023.02c.144.07.277.157.398.261-.824.346-1.209 1.235-1.385 2.07-.233 1.103-.382 2.21-.796 3.269a.065.065 0 00.03.074c.994.435 1.862 1.066 2.756 1.67.745.503 1.682.921 2.561.563a1.793 1.793 0 01-.096.466.054.054 0 000 .032.05.05 0 00-.029.006c-1.15.64-2.42-.089-3.385-.736h.002zm9.02 6.153c-1.096.219-2.22.346-3.217.884-.317-1.064-1.002-1.937-1.613-2.847-.648-.963-1.377-2.235-.736-3.383a.049.049 0 00.006-.028c.01.003.022.002.032-.001.15-.053.307-.086.466-.098-.359.88.06 1.817.563 2.563.604.894 1.235 1.761 1.67 2.755a.064.064 0 00.074.03c1.059-.414 2.166-.563 3.27-.796.835-.175 1.723-.56 2.069-1.385.104.12.191.255.26.399a.05.05 0 00.021.022.049.049 0 00-.015.024c-.352 1.242-1.731 1.636-2.852 1.86h.001zm10.63-1.963c-.611.91-1.296 1.783-1.614 2.847-.996-.538-2.12-.665-3.215-.884-1.121-.224-2.5-.618-2.851-1.86a.047.047 0 00-.015-.024.053.053 0 00.021-.023c.069-.144.156-.278.26-.398.346.824 1.235 1.209 2.07 1.385 1.103.233 2.21.382 3.269.796a.065.065 0 00.074-.03c.435-.994 1.066-1.862 1.67-2.756.503-.745.92-1.682.564-2.561.158.011.315.044.465.096a.05.05 0 00.032.001.05.05 0 00.006.029c.64 1.147-.09 2.419-.737 3.382h.001zm7.037-5.803c-1.065.317-1.937 1.002-2.847 1.613-.963.647-2.235 1.377-3.383.736a.049.049 0 00-.028-.006.052.052 0 00-.001-.032 1.807 1.807 0 01-.098-.466c.88.358 1.817-.06 2.563-.563.894-.604 1.761-1.235 2.755-1.67a.064.064 0 00.03-.074c-.414-1.059-.563-2.166-.796-3.27-.175-.834-.56-1.723-1.385-2.068a1.81 1.81 0 01.399-.261.053.053 0 00.022-.02.04.04 0 00.01.007.044.044 0 00.01.005l.004.002.005.002c1.238.353 1.631 1.73 1.855 2.849.219 1.095.345 2.219.884 3.215z" fill="#6750D6"/><path d="M41.302 18.697c-.114 1.103.18 2.17.4 3.242l-.076-.046c-.886-.536-1.996-1.003-2.992-.527.475-.997.008-2.106-.527-2.992l-.046-.076c1.071.219 2.139.514 3.241.4zM30 14.016c.697.86 1.662 1.407 2.574 2.01a9.062 9.062 0 00-.163.04c-.979.25-2.054.71-2.411 1.723-.358-1.013-1.432-1.473-2.412-1.723a11.118 11.118 0 00-.163-.04c.913-.603 1.877-1.15 2.575-2.01zm-11.303 4.681c1.103.115 2.17-.18 3.242-.4l-.046.076c-.535.887-1.003 1.997-.527 2.993-.997-.476-2.106-.008-2.992.526l-.076.047c.22-1.072.514-2.14.4-3.242zM14.016 30c.86-.698 1.407-1.663 2.01-2.575.012.055.026.109.04.163.25.98.71 2.054 1.723 2.412-1.013.357-1.473 1.431-1.723 2.411l-.04.163c-.603-.912-1.15-1.876-2.01-2.574zm4.681 11.302c.115-1.102-.18-2.17-.4-3.242l.076.046c.887.535 1.997 1.003 2.993.527-.476.997-.008 2.106.527 2.993l.046.075c-1.072-.219-2.138-.514-3.242-.399zM30 45.983c-.698-.86-1.663-1.406-2.575-2.01.055-.012.109-.026.163-.04.98-.25 2.054-.71 2.412-1.723.357 1.014 1.431 1.473 2.411 1.724l.163.04c-.912.603-1.876 1.149-2.574 2.01zm11.302-4.681c-1.102-.115-2.17.18-3.242.4l.046-.076c.536-.887 1.003-1.997.527-2.993.997.476 2.106.008 2.993-.527l.075-.046c-.219 1.072-.514 2.14-.399 3.242zm2.672-8.728a12.13 12.13 0 00-.04-.163c-.251-.979-.71-2.054-1.724-2.411 1.014-.358 1.473-1.432 1.724-2.412l.04-.163c.603.912 1.149 1.877 2.01 2.575-.861.698-1.407 1.662-2.01 2.574z" fill="#190A4E"/></svg>