<svg width="185" height="276" fill="none" xmlns="http://www.w3.org/2000/svg"><path d="M1.974 271.077v-3.578h5.55v-1.346h-5.55v-3.403h6.23v-1.378H.393v11.082h8.033v-1.377H1.974zm12.238 1.504c2.925 0 4.285-1.457 4.285-3.151 0-4.068-6.704-2.374-6.704-5.081 0-.966.806-1.758 2.688-1.758.98 0 2.071.285 3.036.903l.522-1.267c-.917-.633-2.262-.981-3.558-.981-2.91 0-4.238 1.456-4.238 3.166 0 4.116 6.705 2.406 6.705 5.113 0 .966-.823 1.71-2.736 1.71-1.423 0-2.83-.538-3.653-1.282l-.585 1.234c.886.824 2.546 1.394 4.238 1.394zm10.913-11.209h-4.317v11.082h1.58v-3.356h2.736c2.879 0 4.618-1.457 4.618-3.863 0-2.406-1.74-3.863-4.617-3.863zm-.048 6.349H22.39v-4.971h2.688c2.024 0 3.084.902 3.084 2.485 0 1.583-1.06 2.486-3.084 2.486zm14.703 4.733h1.66l-5.029-11.082h-1.565l-5.013 11.082h1.629l1.217-2.77h5.883l1.218 2.77zm-6.547-4.037l2.388-5.43 2.387 5.43h-4.775zm14.732 2.755c-2.498 0-4.348-1.805-4.348-4.259 0-2.454 1.85-4.258 4.348-4.258 1.218 0 2.261.411 3.115 1.314l1.028-.998c-1.012-1.139-2.498-1.725-4.206-1.725-3.368 0-5.867 2.39-5.867 5.667 0 3.024 2.135 5.303 5.108 5.62l-.348 1.362h.427c.633 0 .901.253.901.617 0 .396-.284.633-.885.633-.395 0-.743-.079-1.075-.269l-.332.776c.395.237.853.348 1.407.348 1.186 0 1.96-.554 1.96-1.441 0-.696-.458-1.219-1.375-1.314l.174-.664c1.676-.032 3.115-.634 4.111-1.742l-1.028-.997c-.853.902-1.897 1.33-3.115 1.33zm11.165 1.409c3.368 0 5.866-2.407 5.866-5.668s-2.498-5.667-5.866-5.667c-3.4 0-5.899 2.422-5.899 5.667 0 3.245 2.499 5.668 5.898 5.668zm0-1.409c-2.483 0-4.318-1.805-4.318-4.259 0-2.454 1.835-4.258 4.318-4.258 2.45 0 4.285 1.804 4.285 4.258 0 2.454-1.834 4.259-4.285 4.259zm14.728 1.282h1.565v-9.704h3.796v-1.378h-9.156v1.378h3.795v9.704zm8.664-1.377v-3.578h5.55v-1.346h-5.55v-3.403h6.23v-1.378h-7.811v11.082h8.033v-1.377h-6.452zm18.136 1.377l-2.624-3.72c1.55-.554 2.435-1.789 2.435-3.499 0-2.406-1.74-3.863-4.618-3.863h-4.317v11.082h1.582v-3.372h2.735c.237 0 .475-.016.696-.032l2.388 3.404h1.723zm-4.854-4.718h-2.688v-4.986h2.688c2.024 0 3.083.902 3.083 2.485 0 1.583-1.06 2.501-3.083 2.501zm15.49 4.718h1.66l-5.028-11.082h-1.566l-5.013 11.082h1.629l1.218-2.77h5.882l1.218 2.77zm-6.547-4.037l2.388-5.43 2.388 5.43h-4.776zm14.175-7.045h-4.317v11.082h1.582v-3.356h2.735c2.878 0 4.618-1.457 4.618-3.863 0-2.406-1.74-3.863-4.618-3.863zm-.047 6.349h-2.688v-4.971h2.688c2.024 0 3.084.902 3.084 2.485 0 1.583-1.06 2.486-3.084 2.486zm10.91-8.47l1.455 1.219h1.375l-2.103-2.058h-1.455l-2.103 2.058h1.376l1.455-1.219zm-2.341 11.826v-3.578h5.551v-1.346h-5.551v-3.403h6.231v-1.378h-7.812v11.082h8.033v-1.377h-6.452zm13.598 1.504c2.926 0 4.681-1.694 4.681-4.908v-6.301h-1.534v6.238c0 2.453-1.138 3.562-3.131 3.562-1.992 0-3.115-1.109-3.115-3.562v-6.238h-1.581v6.301c0 3.214 1.771 4.908 4.68 4.908zm9.92-.127h1.566v-9.704h3.795v-1.378h-9.156v1.378h3.795v9.704zm7.083 0h1.582v-11.082h-1.582v11.082zm9.845.127c1.724 0 3.21-.602 4.222-1.742l-1.028-.997c-.854.902-1.897 1.33-3.115 1.33-2.498 0-4.348-1.805-4.348-4.259 0-2.454 1.85-4.258 4.348-4.258 1.218 0 2.261.411 3.115 1.314l1.028-.998c-1.012-1.139-2.498-1.725-4.206-1.725-3.368 0-5.867 2.39-5.867 5.667 0 3.277 2.499 5.668 5.851 5.668zm11.243 0c3.369 0 5.867-2.407 5.867-5.668s-2.498-5.667-5.867-5.667c-3.399 0-5.898 2.422-5.898 5.667 0 3.245 2.499 5.668 5.898 5.668zm0-1.409c-2.482 0-4.317-1.805-4.317-4.259 0-2.454 1.835-4.258 4.317-4.258 2.451 0 4.286 1.804 4.286 4.258 0 2.454-1.835 4.259-4.286 4.259z" fill="#E8E6FF"/><path d="M94.119 205.894a13.044 13.044 0 018.711 5.831c2.28 3.57.535 8.293-3.687 9.806a16.686 16.686 0 01-12.818-.552c-3.426-1.539-3.856-5.012-1.018-7.503 2.166-1.901 4.699-2.186 7.366-1.272a3.416 3.416 0 012.322 2.527 2.17 2.17 0 01-.758 2.314 2.554 2.554 0 01-2.562.433c-.897-.303-1.033-1.189-.25-1.871.503-.439.576-.735.027-1.084-1.217-.778-4.151.321-4.676 1.718-.422 1.129-.124 1.987.985 2.466a14.24 14.24 0 009.233.887c4.152-1.026 5.247-4.852 2.313-7.981a12.236 12.236 0 00-7.511-3.794c-13.866-2.57-16.623 11.512-16.623 11.512-.524 4.723-.769 9.426.748 14.038a14.56 14.56 0 004.932 6.98c5.01 4.051 10.79 5.436 16.982 5.931a28.38 28.38 0 009.352-.795c.487-.124.97-.158.611-.89a.784.784 0 01-.094-.564.783.783 0 01.317-.476c1.272-.689 1.14-1.848 1.121-3.002-.103-6.401-.208-12.803-.278-19.204-.01-.962-.192-1.526-1.325-1.539-.8-.009-1.734-.22-1.64-1.347.093-1.127 1.035-1.084 1.848-1.095 2.943-.037 3.82.766 4.081 3.701.176 1.974.176 2.009 2.21 2.016a58.05 58.05 0 008.715-.311c1.829-.269 2.598-1.909 1.562-3.527-.371-.577-.925-1.178-.359-1.777.748-.79 1.784-.471 2.709-.28a1.29 1.29 0 011.081 1.455c-.026 2.485-.046 4.97-.004 7.454.034 2.052.186 4.104.236 6.156.033 1.41-.781 2.14-2.139 2.018-.934-.083-1.492-.471-1.474-1.532.039-1.957-.018-3.918.015-5.876.014-.86-.171-1.329-1.182-1.295-3.339.11-6.68.141-10.019.221-.603.014-1.236-.048-1.23.936.031 5.634.015 11.268.015 17.215 1.029-.653 1.763-1.17 2.546-1.599.765-.419 1.719-1.198 2.379-.116.66 1.082-.202 1.855-1.089 2.426a21.416 21.416 0 01-7.596 3.201c-7.901 1.492-15.667 1.236-23.113-2.143-5.781-2.625-10.646-6.373-12.052-12.883-.009 0-6.568-32.167 21.08-26.934zM38.39 246.385c-6.425.7-11.818-1.879-17.059-4.947-2.22-1.3-4.336-2.778-6.683-3.856-3.468-1.591-7.2-1.702-10.907-1.936-.429-.027-.867.02-1.286-.049a1.178 1.178 0 01-.995-1.071c-.097-.589.317-.87.749-1.086.266-.105.544-.177.827-.213 2.164-.467 2.166-.466 2.166-2.765 0-4.635-.027-9.268.006-13.902.015-2.098.182-4.196.214-6.294.024-1.6-1.068-2.201-2.465-1.375-.705.417-1.352 1.018-2.173.288a2.36 2.36 0 01-.665-2.498c.25-.944 1.097-1.06 1.95-1.12 1.235-.087 2.465-.256 3.7-.351 2.254-.174 3.13.559 3.121 2.802-.016 4.439-.17 8.879-.17 13.318 0 3.389-.143 6.78.128 10.169.08 1.006.344 1.577 1.418 1.727 4.47.622 8.138 3.01 11.935 5.242 3.665 2.156 7.257 4.752 11.61 5.282 3.723.454 7.523.636 11.229-.367 2.19-.593 2.958-1.835 2.285-3.479a2.221 2.221 0 00-1.002-1.168 7.613 7.613 0 00-4.726-.744c-.763.099-1.153.449-.391 1.199.865.853.64 1.559-.52 1.884a2.969 2.969 0 01-3.5-1.52c-.52-1.178-.018-2.383 1.35-3.24 2.74-1.717 7.983-1.27 10.387.886 2.697 2.419 2.097 6.308-1.242 7.874a13.059 13.059 0 01-4.66 1.289c-1.57.102-3.147.021-4.631.021zm100.75-31.379c2.671 0 5.342-.033 8.012.011 1.78.03 2.717.705 2.638 1.753-.085 1.138-1.164 1.625-2.987 1.265-3.406-.669-6.839-.441-10.27-.398-1.139.014-1.595.538-1.623 1.659-.05.953-.163 1.901-.336 2.84-.102.646.107 1.115.762 1.074 3.434-.211 6.96.506 10.27-.994a1.482 1.482 0 011.746.136 2.344 2.344 0 01.349 2.181c-.149.684-.704.78-1.322.837-2.521.199-5.05.271-7.578.216-.905-.007-1.814.175-2.696.177-1.62.006-2.059.691-1.868 2.174.163 1.265-.512 2.898.273 3.736.804.855 2.442.249 3.71.273 2.146.04 4.292-.029 6.439-.042a7.316 7.316 0 003.468-.661c.677-.352 1.554-.535 1.911.476.338.957.384 1.941-.866 2.329a7.862 7.862 0 01-2.377.436c-4.245-.018-8.491 0-12.736-.009-2.268-.005-2.863-.649-2.917-2.85a78.878 78.878 0 01.647-12.279c.123-.93-.08-1.508-1.157-1.665-.889-.128-1.697-.561-1.428-1.716.243-1.044 1.081-1.076 1.928-.995 2.668.25 5.339.05 8.008.036zm24.015 19.204a5.164 5.164 0 01-.852-.049c-1.482-.256-1.674-1.05-.99-2.451 2.087-4.277 4.836-8.208 6.539-12.68.309-.646.47-1.353.471-2.069-.132-1.231.448-1.627 1.489-1.773 1.88-.321 3.8-.327 5.682-.016 1.43.277 1.658.936.761 2.044-.53.656-.26 1.059.107 1.626 2.618 4.035 5.313 8.026 7.604 12.264.406.752.9 1.566.073 2.342-.784.734-2.145.423-2.781-.698a29.27 29.27 0 01-1.742-3.596c-.818-2.061-2.003-3.299-4.479-3.042a47.856 47.856 0 01-6-.01 1.795 1.795 0 00-1.826 1.059c-.513.967-1.168 1.855-1.705 2.809a2.205 2.205 0 00-.326 1.903c.722 1.966.434 2.348-2.025 2.337zm9.206-10.837v-.01c.758 0 1.515.005 2.273 0 .524-.004.889-.148.497-.748a249.226 249.226 0 00-2.745-4.14c-.306-.449-.669-.501-.98.038-.663 1.146-1.366 2.27-1.986 3.439-.524.986-.238 1.512.954 1.43.66-.048 1.325-.01 1.989-.01l-.002.001z" fill="#fff"/><path d="M38.883 224.571c.076 1.949-.099 3.912.257 5.852a2.557 2.557 0 001.588 2.193 1.105 1.105 0 01.828 1.192c-.07.642-.529.875-1.039 1.035-1.34.425-2.704.749-3.954-.203a2.012 2.012 0 00-1.057-.395 2.012 2.012 0 00-1.105.234c-3.658 1.512-7.136.529-10.528-.846-2.31-.935-3.223-2.976-3.5-5.335-.27-2.43.078-4.889 1.01-7.148.354-.889.656-1.697-.783-1.855a.956.956 0 01-.768-.928 1.085 1.085 0 01.684-1.148 7.267 7.267 0 013.742-.731c1.109.089 1.655 1.236 1.245 2.571-.293.953-.741 1.86-1.095 2.791a13.938 13.938 0 00-.975 4.3c-.155 3.27 1.114 5.168 4.291 5.981 2.393.612 4.805.834 6.973-.814a2.801 2.801 0 001.203-2.719 57.589 57.589 0 01-.167-7.154c.026-1.052.075-2.052-.7-2.961-.571-.671-.076-1.312.566-1.622.857-.413 1.804-.815 2.544.261.558.953.815 2.052.737 3.153.022 1.432.003 2.864.003 4.296zm6.008 10.447a7.505 7.505 0 01-.977-.166c-1.294-.352-1.423-.999-.822-2.223 2.16-4.398 4.976-8.455 6.723-13.064a3.5 3.5 0 00.351-1.806c-.216-1.231.5-1.683 1.482-1.806a21.075 21.075 0 015.559-.058c1.515.213 1.784.921.854 2.174-.518.699-.103 1.103.236 1.632 2.52 3.93 5.128 7.805 7.366 11.905.48.878 1.292 1.882.023 2.746-.957.651-2.16.085-2.855-1.296-.663-1.317-1.245-2.674-1.876-4.008-.63-1.334-1.5-2.184-3.181-2.112-2.184.095-4.38-.064-6.57-.113a2.123 2.123 0 00-2.2 1.219c-.44.892-1.064 1.693-1.566 2.558a2.446 2.446 0 00-.404 2.04c.648 1.97.299 2.428-2.143 2.378zm9.299-10.827v-.005c.763 0 1.527-.007 2.29 0 .742.009.833-.354.48-.89a243.41 243.41 0 00-2.708-4.04c-.38-.554-.705-.523-1.034.1-.489.925-1.052 1.811-1.569 2.721-.301.532-.847 1.108-.57 1.692.35.738 1.192.346 1.824.409.425.046.858.012 1.287.012v.001zm101.195-8.812c.896-.076 1.797-.193 2.698-.214.664-.015 1.367.023 1.559.905a1.17 1.17 0 01-.13.969 1.172 1.172 0 01-.818.535c-1.208.347-1.515 1.154-1.592 2.34-.228 3.527-.085 7.054-.128 10.581-.01.834.248 1.336 1.16 1.475.694.107 1.511.314 1.36 1.301-.141.916-.863 1.218-1.696 1.179a195.627 195.627 0 01-5.131-.321 1.14 1.14 0 01-1.174-.862 1.058 1.058 0 01.814-1.316c1.379-.477 1.593-1.471 1.587-2.797-.014-3.239.12-6.476.208-9.719.025-.918-.076-1.713-1.153-2.006a.799.799 0 01-.614-1.09 1.18 1.18 0 011.049-1.01c.661-.055 1.331-.012 1.998-.012l.003.062zm4.103-168.773c5.132 3.453 10.052 7.319 16.055 9.112-3.035 5.626-3.75 11.973-4.986 18.159-1.264 6.329-3.487 14.12-10.493 16.095-.009 0-.014.008-.022.01a.252.252 0 00-.064.031.244.244 0 00-.053.044.294.294 0 00-.125-.119 10.164 10.164 0 01-2.248-1.47c4.652-1.953 6.819-6.97 7.81-11.684 1.313-6.236 2.155-12.487 4.489-18.465a.367.367 0 00-.168-.414c-5.608-2.459-10.501-6.023-15.542-9.431-4.204-2.841-9.489-5.201-14.449-3.183.064-.896.247-1.78.545-2.629a.314.314 0 00.005-.18.273.273 0 00.16-.035c6.483-3.614 13.653.503 19.086 4.159zm-21.75 2.024c-.969 2.309-3.908 4.628-6.217 2.313-2.135-2.137-.264-4.996 1.898-6.052 1.739-.85 3.727-1.026 5.602-1.454-.399 1.737-.591 3.544-1.283 5.194zM95.013 28.623c.942 2.316.504 6.033-2.764 6.033-3.017 0-3.715-3.343-2.933-5.62.629-1.833 1.91-3.367 2.934-4.997.948 1.515 2.09 2.93 2.765 4.587l-.002-.003zM50.67 44.72c2.306.969 4.623 3.908 2.31 6.223-2.135 2.138-4.99.264-6.045-1.9-.849-1.74-1.025-3.731-1.453-5.608 1.735.4 3.542.592 5.19 1.286l-.002-.001zM30.685 87.49c2.313-.944 6.026-.505 6.026 2.767 0 3.02-3.34 3.719-5.614 2.936-1.831-.63-3.362-1.913-4.991-2.938 1.514-.947 2.926-2.09 4.584-2.766h-.006zm16.077 44.393c.969-2.309 3.907-4.628 6.217-2.313 2.135 2.137.264 4.996-1.898 6.053-1.74.849-3.728 1.026-5.602 1.454.401-1.739.593-3.544 1.286-5.195l-.003.001zm42.725 20.007c-.943-2.316-.505-6.032 2.764-6.032 3.017 0 3.715 3.342 2.933 5.62-.629 1.833-1.911 3.366-2.935 4.996-.945-1.515-2.087-2.929-2.762-4.588v.004zm44.343-16.096c-2.306-.969-4.621-3.911-2.31-6.223 2.135-2.137 4.991-.264 6.046 1.9.849 1.741 1.025 3.731 1.453 5.608-1.736-.4-3.539-.592-5.188-1.286l-.001.001zm19.985-42.772c-2.313.944-6.026.506-6.026-2.766 0-3.02 3.339-3.72 5.614-2.937 1.831.63 3.362 1.914 4.991 2.938-1.512.947-2.926 2.09-4.581 2.765h.002zm-45.202-81.16c6.179-1.236 12.519-1.952 18.139-4.99 1.793 6.01 5.652 10.935 9.102 16.072 3.651 5.44 7.764 12.62 4.15 19.105a.27.27 0 00-.035.16.304.304 0 00-.179.005c-.847.3-1.73.485-2.626.553 2.022-4.967-.337-10.26-3.176-14.472-3.405-5.047-6.965-9.946-9.421-15.56a.366.366 0 00-.413-.167c-5.972 2.336-12.216 3.179-18.444 4.492-4.71.994-9.721 3.162-11.672 7.824a10.185 10.185 0 01-1.471-2.252.305.305 0 00-.12-.128.27.27 0 00.086-.135c1.975-7.015 9.758-9.24 16.08-10.506zM48.648 22.946c3.45-5.137 7.311-10.063 9.103-16.073 5.62 3.04 11.96 3.755 18.139 4.992 6.321 1.265 14.103 3.49 16.077 10.505.015.053.045.1.086.135a.305.305 0 00-.12.128c-.388.812-.882 1.57-1.468 2.251-1.95-4.658-6.962-6.826-11.672-7.823-6.228-1.313-12.473-2.156-18.444-4.493a.364.364 0 00-.413.168c-2.456 5.614-6.016 10.512-9.42 15.56-2.84 4.208-5.196 9.5-3.18 14.464a10.072 10.072 0 01-2.626-.545.305.305 0 00-.18-.005.268.268 0 00-.035-.16c-3.61-6.483.502-13.664 4.154-19.104zM8.96 55.719c6.003-1.795 10.924-5.659 16.055-9.112 5.434-3.655 12.605-7.774 19.084-4.155.048.027.104.04.16.035a.308.308 0 00.005.18c.299.848.484 1.732.552 2.629-4.962-2.025-10.249.336-14.456 3.179-5.042 3.408-9.935 6.972-15.542 9.43a.366.366 0 00-.168.415c2.334 5.978 3.176 12.229 4.488 18.465.992 4.715 3.158 9.73 7.814 11.684a10.177 10.177 0 01-2.249 1.47.303.303 0 00-.128.12.264.264 0 00-.134-.086c-7.006-1.978-9.23-9.769-10.494-16.095-1.237-6.186-1.951-12.533-4.987-18.159zm5.69 66.475a.364.364 0 00.168.413c5.607 2.459 10.5 6.023 15.542 9.432 4.203 2.841 9.49 5.201 14.449 3.182a10.12 10.12 0 01-.545 2.629.306.306 0 00-.005.179.278.278 0 00-.16.036c-6.478 3.617-13.65-.5-19.084-4.155-5.132-3.453-10.052-7.319-16.055-9.112 3.036-5.627 3.75-11.973 4.986-18.16 1.264-6.328 3.487-14.12 10.494-16.095a.26.26 0 00.134-.087c.03.052.074.094.128.12.811.389 1.568.883 2.25 1.471-4.653 1.953-6.82 6.97-7.816 11.685l-4.486 18.462zm61.239 46.46c-6.18 1.237-12.52 1.952-18.14 4.991-1.793-6.01-5.652-10.936-9.101-16.073-3.651-5.44-7.766-12.618-4.151-19.105a.27.27 0 00.035-.159.305.305 0 00.18-.006 10.17 10.17 0 012.626-.552c-2.023 4.967.336 10.26 3.175 14.471 3.405 5.048 6.965 9.946 9.421 15.559a.363.363 0 00.413.169c5.972-2.337 12.217-3.18 18.445-4.493 4.71-.993 9.72-3.162 11.671-7.82.587.682 1.08 1.44 1.469 2.252a.299.299 0 00.12.128.27.27 0 00-.086.135c-1.971 7.009-9.754 9.235-16.075 10.498l-.002.005zm59.964-11.082c-3.45 5.137-7.311 10.063-9.102 16.073-5.62-3.039-11.96-3.754-18.139-4.991-6.322-1.265-14.104-3.491-16.078-10.505a.274.274 0 00-.086-.136.293.293 0 00.12-.128c.388-.812.882-1.569 1.469-2.251 1.95 4.657 6.961 6.827 11.671 7.819 6.229 1.313 12.472 2.157 18.445 4.493a.365.365 0 00.412-.168c2.457-5.613 6.017-10.512 9.421-15.56 2.838-4.207 5.196-9.499 3.179-14.464.896.064 1.779.248 2.626.546a.315.315 0 00.18.005.271.271 0 00.035.16c3.613 6.485-.5 13.665-4.151 19.105l-.002.002zm39.689-32.773c-6.003 1.796-10.924 5.66-16.055 9.113-5.434 3.655-12.605 7.773-19.084 4.155a.269.269 0 00-.159-.036.312.312 0 00-.005-.179 10.232 10.232 0 01-.553-2.629c4.962 2.025 10.249-.337 14.456-3.179 5.042-3.409 9.935-6.973 15.542-9.432a.364.364 0 00.168-.413c-2.334-5.978-3.176-12.23-4.488-18.465-.992-4.715-3.158-9.732-7.811-11.684a10.195 10.195 0 012.249-1.471.094.094 0 01.007-.068.096.096 0 01.17-.007c.02.014.041.024.064.031.008 0 .012.008.02.01l.029.01c6.982 1.992 9.202 9.768 10.464 16.088 1.238 6.181 1.952 12.527 4.988 18.154l-.002.002z" fill="#fff"/><path d="M156.002 26.435c-.646 6.226 1.017 12.254 2.253 18.305l-.426-.26c-5.004-3.02-11.261-5.661-16.88-2.975 2.684-5.626.045-11.89-2.972-16.899-.086-.142-.173-.284-.256-.426 6.041 1.238 12.063 2.902 18.281 2.255zM92.251 0c3.936 4.86 9.376 7.945 14.522 11.35-.307.075-.614.15-.92.228-5.528 1.416-11.586 4.009-13.602 9.732-2.016-5.722-8.07-8.316-13.601-9.732a74.913 74.913 0 00-.92-.228C82.875 7.945 88.314 4.86 92.25 0zM28.5 26.435c6.219.647 12.241-1.017 18.285-2.255-.087.142-.174.284-.257.426-3.017 5.01-5.655 11.273-2.971 16.9-5.62-2.688-11.877-.047-16.88 2.974-.143.086-.285.173-.426.26 1.233-6.051 2.895-12.08 2.25-18.305zM2.094 90.257c4.856-3.94 7.937-9.386 11.338-14.538.074.308.15.615.227.922 1.415 5.532 4.006 11.598 9.721 13.616-5.715 2.018-8.306 8.08-9.72 13.617-.079.306-.154.613-.228.921-3.401-5.153-6.482-10.597-11.338-14.538zM28.5 154.078c.646-6.224-1.016-12.254-2.253-18.304l.426.26c5.004 3.02 11.261 5.662 16.88 2.975-2.684 5.626-.045 11.889 2.972 16.899.086.142.173.285.256.426-6.04-1.237-12.062-2.902-18.28-2.256zm63.751 26.436c-3.936-4.861-9.376-7.945-14.522-11.35.308-.074.615-.149.92-.228 5.528-1.416 11.586-4.009 13.602-9.731 2.016 5.722 8.071 8.315 13.602 9.731.306.079.613.154.92.228-5.147 3.405-10.586 6.489-14.522 11.35zm63.751-26.436c-6.218-.646-12.241 1.019-18.284 2.256.086-.141.173-.284.256-.426 3.017-5.01 5.655-11.274 2.971-16.899 5.621 2.687 11.877.045 16.881-2.975l.426-.26c-1.233 6.05-2.896 12.08-2.25 18.304zm15.07-49.283a56.237 56.237 0 00-.227-.921c-1.414-5.534-4.005-11.599-9.72-13.617 5.715-2.018 8.306-8.084 9.72-13.616.079-.307.154-.614.227-.922 3.4 5.152 6.481 10.598 11.338 14.538-4.857 3.94-7.938 9.385-11.338 14.538z" fill="#E8E6FF"/><path d="M133.587 63.422c3.154 2.122 6.179 4.499 9.87 5.601-1.866 3.459-2.306 7.361-3.065 11.164-.778 3.89-2.144 8.68-6.452 9.896-.005 0-.008.005-.013.007a.14.14 0 00-.038.019.137.137 0 00-.032.027.186.186 0 00-.077-.073 6.266 6.266 0 01-1.383-.904c2.861-1.2 4.193-4.285 4.804-7.183.807-3.833 1.324-7.675 2.76-11.35a.222.222 0 00-.008-.146.218.218 0 00-.096-.11c-3.447-1.512-6.455-3.703-9.554-5.799-2.584-1.746-5.834-3.197-8.883-1.956.04-.551.152-1.095.335-1.616a.189.189 0 00.003-.11.165.165 0 00.098-.022c3.981-2.224 8.39.306 11.731 2.555zm-13.372 1.244c-.595 1.418-2.4 2.845-3.822 1.422-1.312-1.314-.162-3.072 1.167-3.72a15.553 15.553 0 013.444-.893 19.15 19.15 0 01-.789 3.191zM93.952 52.368c.58 1.424.311 3.709-1.698 3.709-1.858 0-2.284-2.055-1.803-3.455a15.562 15.562 0 011.803-3.072 19.043 19.043 0 011.696 2.818h.002zM66.69 62.263c1.416.596 2.841 2.403 1.42 3.826-1.313 1.314-3.068.162-3.715-1.169a15.592 15.592 0 01-.893-3.447c1.083.171 2.15.435 3.188.79zM54.405 88.555c1.422-.578 3.704-.31 3.704 1.7 0 1.86-2.05 2.287-3.45 1.806a15.539 15.539 0 01-3.07-1.806 19.104 19.104 0 012.816-1.7zm9.882 27.291c.595-1.417 2.4-2.844 3.822-1.421 1.312 1.314.162 3.071-1.167 3.719-1.11.429-2.265.729-3.444.894.172-1.084.436-2.151.79-3.19v-.002zm26.263 12.299c-.58-1.424-.31-3.71 1.699-3.71 1.857 0 2.283 2.056 1.803 3.456a15.617 15.617 0 01-1.804 3.072 19.11 19.11 0 01-1.696-2.817l-.002-.001zm27.261-9.894c-1.416-.596-2.842-2.403-1.42-3.826 1.312-1.314 3.067-.162 3.715 1.168.428 1.111.728 2.268.893 3.448a19.289 19.289 0 01-3.186-.789l-.002-.001zm12.284-26.292c-1.422.577-3.704.31-3.704-1.7 0-1.86 2.05-2.287 3.451-1.806a15.538 15.538 0 013.068 1.806 19.123 19.123 0 01-2.812 1.699l-.003.001zm1.666-37.898c0 .058.005.117.008.175a10.445 10.445 0 01-.013-.176h.005zm-3.352-3.356v.004l-.176-.012.176.008zm-26.099-8.642c3.799-.76 7.696-1.2 11.151-3.068 1.102 3.695 3.475 6.723 5.596 9.881 2.245 3.344 4.774 7.76 2.552 11.745a.161.161 0 00-.022.098.19.19 0 00-.11.004 6.253 6.253 0 01-1.616.34c1.243-3.054-.207-6.31-1.953-8.897-2.093-3.103-4.282-6.115-5.792-9.566a.225.225 0 00-.256-.103c-3.671 1.436-7.51 1.954-11.338 2.762-2.895.61-5.976 1.944-7.174 4.81a6.235 6.235 0 01-.903-1.385.183.183 0 00-.073-.077.166.166 0 00.053-.083c1.214-4.314 5.998-5.684 9.885-6.46zm-28.056-2.1l-.164-.053v-.003l.164.056zm-8.806 8.913c2.12-3.158 4.494-6.186 5.596-9.881 3.454 1.868 7.352 2.308 11.151 3.068 3.886.778 8.67 2.147 9.885 6.46a.17.17 0 00.053.082.183.183 0 00-.073.077c-.239.5-.543.965-.904 1.384-1.199-2.863-4.28-4.196-7.174-4.81-3.828-.807-7.667-1.325-11.337-2.761a.224.224 0 00-.257.103c-1.51 3.451-3.698 6.463-5.791 9.566-1.745 2.587-3.195 5.84-1.955 8.892a6.18 6.18 0 01-1.614-.335.192.192 0 00-.11-.003.168.168 0 00-.022-.099c-2.224-3.985.304-8.4 2.55-11.744l.002.001zm-24.4 20.148c3.69-1.103 6.715-3.48 9.87-5.602 3.34-2.247 7.751-4.779 11.732-2.554.03.017.065.024.099.021a.186.186 0 000 .11c.184.523.298 1.067.34 1.618-3.05-1.244-6.302.208-8.888 1.955-3.1 2.096-6.107 4.287-9.554 5.798a.224.224 0 00-.104.257c1.435 3.676 1.953 7.519 2.76 11.35.61 2.9 1.941 5.983 4.804 7.182a6.25 6.25 0 01-1.383.904.188.188 0 00-.077.074.166.166 0 00-.083-.053c-4.307-1.219-5.673-6.005-6.451-9.897-.762-3.803-1.202-7.705-3.068-11.164h.003zm9.87 48.069c-3.155-2.122-6.18-4.499-9.87-5.602 1.866-3.458 2.306-7.36 3.065-11.164.778-3.89 2.144-8.68 6.451-9.896a.16.16 0 00.083-.053.188.188 0 00.078.074 6.25 6.25 0 011.382.904c-2.86 1.2-4.192 4.284-4.804 7.182-.807 3.833-1.324 7.676-2.76 11.35a.224.224 0 00.104.256c3.447 1.512 6.455 3.703 9.554 5.799 2.584 1.746 5.834 3.197 8.883 1.956a6.204 6.204 0 01-.335 1.616.184.184 0 000 .11.17.17 0 00-.099.022c-3.985 2.224-8.394-.307-11.734-2.556l.003.002zm31.272 21.358c-3.799.76-7.697 1.2-11.151 3.069-1.102-3.695-3.476-6.723-5.596-9.882-2.242-3.344-4.774-7.759-2.552-11.745a.168.168 0 00.022-.098.18.18 0 00.11-.004 6.333 6.333 0 011.616-.339c-1.243 3.054.207 6.309 1.953 8.896 2.093 3.104 4.282 6.115 5.791 9.566a.223.223 0 00.257.104c3.671-1.437 7.51-1.955 11.337-2.763 2.896-.61 5.977-1.943 7.174-4.809.361.419.665.885.904 1.384.016.033.041.06.073.078a.164.164 0 00-.053.083c-1.212 4.314-5.996 5.684-9.885 6.46zm36.864-6.813c-2.12 3.159-4.494 6.187-5.596 9.882-3.454-1.869-7.352-2.309-11.151-3.069-3.886-.778-8.67-2.146-9.885-6.458a.16.16 0 00-.053-.083.184.184 0 00.074-.078c.238-.499.542-.965.903-1.384 1.199 2.864 4.28 4.197 7.174 4.809 3.828.808 7.667 1.326 11.338 2.763a.222.222 0 00.256-.104c1.51-3.451 3.698-6.462 5.792-9.566 1.744-2.586 3.193-5.84 1.954-8.891.55.039 1.093.152 1.614.334a.18.18 0 00.11.004.169.169 0 00.022.098c2.224 3.985-.304 8.4-2.549 11.743h-.003zm24.4-20.148c-3.69 1.103-6.715 3.48-9.87 5.602-3.34 2.248-7.75 4.78-11.732 2.555a.17.17 0 00-.099-.022.173.173 0 00-.003-.11 6.346 6.346 0 01-.339-1.618c3.051 1.245 6.302-.207 8.887-1.954 3.1-2.096 6.108-4.287 9.555-5.799a.224.224 0 00.103-.256c-1.435-3.676-1.953-7.519-2.759-11.35-.61-2.899-1.942-5.983-4.804-7.182a6.26 6.26 0 011.383-.904.189.189 0 00.077-.073c.009.01.02.02.032.027a.206.206 0 00.038.02c.005 0 .008.004.013.005l.017.006c4.292 1.224 5.657 6.005 6.433 9.89.765 3.803 1.204 7.705 3.071 11.163h-.003z" fill="#fff"/><path d="M131.444 51.021c-.398 3.827.624 7.533 1.384 11.254l-.262-.16c-3.074-1.86-6.922-3.48-10.376-1.83 1.65-3.458.028-7.31-1.827-10.387a21.269 21.269 0 00-.16-.263c3.715.76 7.418 1.784 11.241 1.386zM92.251 34.769c2.42 2.988 5.765 4.885 8.928 6.977-.192.045-.378.092-.566.14-3.395.87-7.122 2.465-8.362 5.982-1.24-3.517-4.964-5.111-8.362-5.982a42.495 42.495 0 00-.566-.14c3.165-2.093 6.508-3.989 8.928-6.977zM53.059 51.021c3.823.398 7.525-.626 11.24-1.386l-.16.262c-1.854 3.078-3.476 6.93-1.826 10.388-3.455-1.652-7.302-.028-10.377 1.829l-.261.16c.76-3.72 1.782-7.426 1.384-11.253zM36.825 90.257c2.985-2.423 4.88-5.771 6.969-8.938.045.193.091.379.14.567.87 3.399 2.462 7.13 5.976 8.371-3.514 1.24-5.107 4.97-5.976 8.371-.049.189-.095.377-.14.567-2.086-3.168-3.984-6.515-6.969-8.938zm16.234 39.236c.398-3.827-.625-7.533-1.385-11.253.087.053.174.107.262.159 3.075 1.86 6.922 3.481 10.377 1.829-1.65 3.459-.029 7.311 1.826 10.389l.16.262c-3.715-.761-7.418-1.784-11.24-1.386zm39.192 16.251c-2.42-2.987-5.765-4.884-8.928-6.976.19-.045.378-.091.566-.14 3.395-.87 7.123-2.465 8.362-5.982 1.24 3.517 4.964 5.112 8.362 5.982.188.049.377.095.566.14-3.168 2.092-6.508 3.988-8.928 6.976zm39.193-16.251c-3.823-.398-7.526.625-11.241 1.386.053-.087.107-.174.159-.262 1.858-3.078 3.477-6.93 1.827-10.388 3.455 1.652 7.302.028 10.377-1.829l.262-.16c-.76 3.72-1.782 7.426-1.384 11.253zm9.264-30.298a29.927 29.927 0 00-.139-.567c-.87-3.399-2.463-7.13-5.977-8.37 3.514-1.242 5.107-4.97 5.977-8.372.048-.188.094-.378.139-.567 2.09 3.168 3.984 6.515 6.969 8.938-2.984 2.422-4.879 5.77-6.969 8.938z" fill="#E8E6FF"/></svg>