<svg width="185" height="276" viewBox="0 0 185 276" fill="none" xmlns="http://www.w3.org/2000/svg">
<path d="M1.97382 271.077V267.499H7.52423V266.153H1.97382V262.75H8.2042V261.372H0.392504V272.454H8.42558V271.077H1.97382Z" fill="#E8E6FF"/>
<path d="M14.212 272.581C17.1374 272.581 18.4973 271.124 18.4973 269.43C18.4973 265.362 11.7925 267.056 11.7925 264.349C11.7925 263.383 12.599 262.591 14.4808 262.591C15.4612 262.591 16.5523 262.876 17.5169 263.494L18.0387 262.227C17.1216 261.594 15.7775 261.246 14.4808 261.246C11.5712 261.246 10.2429 262.702 10.2429 264.412C10.2429 268.528 16.9476 266.818 16.9476 269.525C16.9476 270.491 16.1253 271.235 14.212 271.235C12.7888 271.235 11.3814 270.697 10.5591 269.953L9.97404 271.187C10.8596 272.011 12.52 272.581 14.212 272.581Z" fill="#E8E6FF"/>
<path d="M25.1245 261.372H20.8075V272.454H22.3888V269.098H25.1245C28.0025 269.098 29.742 267.641 29.742 265.235C29.742 262.829 28.0025 261.372 25.1245 261.372ZM25.0771 267.721H22.3888V262.75H25.0771C27.1012 262.75 28.1606 263.652 28.1606 265.235C28.1606 266.818 27.1012 267.721 25.0771 267.721Z" fill="#E8E6FF"/>
<path d="M39.7795 272.454H41.4399L36.4113 261.372H34.8458L29.833 272.454H31.4618L32.6794 269.684H38.5619L39.7795 272.454ZM33.2328 268.417L35.6206 262.987L38.0084 268.417H33.2328Z" fill="#E8E6FF"/>
<path d="M47.9653 271.172C45.4668 271.172 43.6166 269.367 43.6166 266.913C43.6166 264.459 45.4668 262.655 47.9653 262.655C49.1829 262.655 50.2265 263.066 51.0804 263.969L52.1083 262.971C51.0963 261.832 49.6098 261.246 47.902 261.246C44.5338 261.246 42.0353 263.636 42.0353 266.913C42.0353 269.937 44.1701 272.216 47.143 272.533L46.7951 273.895H47.222C47.8546 273.895 48.1234 274.148 48.1234 274.512C48.1234 274.908 47.8387 275.145 47.2378 275.145C46.8425 275.145 46.4946 275.066 46.1625 274.876L45.8305 275.652C46.2258 275.889 46.6844 276 47.2378 276C48.4238 276 49.1987 275.446 49.1987 274.559C49.1987 273.863 48.7401 273.34 47.8229 273.245L47.9969 272.581C49.6731 272.549 51.1121 271.947 52.1083 270.839L51.0804 269.842C50.2265 270.744 49.1829 271.172 47.9653 271.172Z" fill="#E8E6FF"/>
<path d="M59.1295 272.581C62.4977 272.581 64.9961 270.174 64.9961 266.913C64.9961 263.652 62.4977 261.246 59.1295 261.246C55.7296 261.246 53.2312 263.668 53.2312 266.913C53.2312 270.158 55.7296 272.581 59.1295 272.581ZM59.1295 271.172C56.6468 271.172 54.8125 269.367 54.8125 266.913C54.8125 264.459 56.6468 262.655 59.1295 262.655C61.5805 262.655 63.4148 264.459 63.4148 266.913C63.4148 269.367 61.5805 271.172 59.1295 271.172Z" fill="#E8E6FF"/>
<path d="M73.8578 272.454H75.4233V262.75H79.2185V261.372H70.0626V262.75H73.8578V272.454Z" fill="#E8E6FF"/>
<path d="M82.522 271.077V267.499H88.0725V266.153H82.522V262.75H88.7524V261.372H80.9407V272.454H88.9738V271.077H82.522Z" fill="#E8E6FF"/>
<path d="M100.658 272.454L98.0335 268.734C99.5832 268.18 100.469 266.945 100.469 265.235C100.469 262.829 98.7293 261.372 95.8513 261.372H91.5343V272.454H93.1156V269.082H95.8513C96.0885 269.082 96.3257 269.066 96.5471 269.05L98.9348 272.454H100.658ZM95.8038 267.736H93.1156V262.75H95.8038C97.8279 262.75 98.8874 263.652 98.8874 265.235C98.8874 266.818 97.8279 267.736 95.8038 267.736Z" fill="#E8E6FF"/>
<path d="M111.294 272.454H112.954L107.926 261.372H106.36L101.347 272.454H102.976L104.194 269.684H110.076L111.294 272.454ZM104.747 268.417L107.135 262.987L109.523 268.417H104.747Z" fill="#E8E6FF"/>
<path d="M118.922 261.372H114.605V272.454H116.187V269.098H118.922C121.8 269.098 123.54 267.641 123.54 265.235C123.54 262.829 121.8 261.372 118.922 261.372ZM118.875 267.721H116.187V262.75H118.875C120.899 262.75 121.959 263.652 121.959 265.235C121.959 266.818 120.899 267.721 118.875 267.721Z" fill="#E8E6FF"/>
<path d="M129.785 259.251L131.24 260.47H132.615L130.512 258.412H129.057L126.954 260.47H128.33L129.785 259.251ZM127.444 271.077V267.499H132.995V266.153H127.444V262.75H133.675V261.372H125.863V272.454H133.896V271.077H127.444Z" fill="#E8E6FF"/>
<path d="M141.042 272.581C143.968 272.581 145.723 270.887 145.723 267.673V261.372H144.189V267.61C144.189 270.063 143.051 271.172 141.058 271.172C139.066 271.172 137.943 270.063 137.943 267.61V261.372H136.362V267.673C136.362 270.887 138.133 272.581 141.042 272.581Z" fill="#E8E6FF"/>
<path d="M150.962 272.454H152.528V262.75H156.323V261.372H147.167V262.75H150.962V272.454Z" fill="#E8E6FF"/>
<path d="M158.045 272.454H159.627V261.372H158.045V272.454Z" fill="#E8E6FF"/>
<path d="M167.89 272.581C169.614 272.581 171.1 271.979 172.112 270.839L171.084 269.842C170.23 270.744 169.187 271.172 167.969 271.172C165.471 271.172 163.621 269.367 163.621 266.913C163.621 264.459 165.471 262.655 167.969 262.655C169.187 262.655 170.23 263.066 171.084 263.969L172.112 262.971C171.1 261.832 169.614 261.246 167.906 261.246C164.538 261.246 162.039 263.636 162.039 266.913C162.039 270.19 164.538 272.581 167.89 272.581Z" fill="#E8E6FF"/>
<path d="M179.133 272.581C182.502 272.581 185 270.174 185 266.913C185 263.652 182.502 261.246 179.133 261.246C175.734 261.246 173.235 263.668 173.235 266.913C173.235 270.158 175.734 272.581 179.133 272.581ZM179.133 271.172C176.651 271.172 174.816 269.367 174.816 266.913C174.816 264.459 176.651 262.655 179.133 262.655C181.584 262.655 183.419 264.459 183.419 266.913C183.419 269.367 181.584 271.172 179.133 271.172Z" fill="#E8E6FF"/>
<path d="M94.1189 205.894C95.8947 206.211 97.5856 206.892 99.085 207.896C100.584 208.9 101.86 210.204 102.83 211.725C105.11 215.295 103.365 220.018 99.1427 221.531C97.0752 222.289 94.8784 222.63 92.6787 222.535C90.479 222.441 88.3196 221.912 86.3248 220.979C82.8991 219.44 82.4693 215.967 85.3069 213.476C87.4733 211.575 90.006 211.29 92.6732 212.204C93.2484 212.383 93.7662 212.711 94.174 213.155C94.5818 213.598 94.8651 214.142 94.9952 214.731C95.1151 215.148 95.107 215.592 94.9719 216.005C94.8367 216.418 94.5809 216.78 94.2374 217.045C93.8877 217.34 93.4657 217.535 93.0152 217.611C92.5647 217.687 92.1021 217.641 91.6752 217.478C90.7785 217.175 90.642 216.289 91.4241 215.607C91.9276 215.168 92.0006 214.872 91.4523 214.523C90.2353 213.745 87.301 214.844 86.7763 216.241C86.3542 217.37 86.6521 218.228 87.7609 218.707C90.6538 220.025 93.9038 220.337 96.9944 219.594C101.146 218.568 102.241 214.742 99.3073 211.613C97.3299 209.5 94.6687 208.155 91.7957 207.819C77.9298 205.249 75.1729 219.331 75.1729 219.331C74.6489 224.054 74.4042 228.757 75.921 233.369C76.8301 236.137 78.5483 238.569 80.8532 240.349C85.8629 244.4 91.6432 245.785 97.8354 246.28C100.975 246.536 104.136 246.267 107.187 245.485C107.674 245.361 108.157 245.327 107.798 244.595C107.697 244.426 107.663 244.224 107.704 244.031C107.746 243.838 107.859 243.668 108.021 243.555C109.293 242.866 109.161 241.707 109.142 240.553C109.039 234.152 108.934 227.75 108.864 221.349C108.854 220.387 108.672 219.823 107.539 219.81C106.739 219.801 105.805 219.59 105.899 218.463C105.992 217.336 106.934 217.379 107.747 217.368C110.69 217.331 111.567 218.134 111.828 221.069C112.004 223.043 112.004 223.078 114.038 223.085C116.947 223.2 119.86 223.096 122.753 222.774C124.582 222.505 125.351 220.865 124.315 219.247C123.944 218.67 123.39 218.069 123.956 217.47C124.704 216.68 125.74 216.999 126.665 217.19C127 217.242 127.301 217.424 127.503 217.696C127.705 217.968 127.792 218.309 127.746 218.645C127.72 221.13 127.7 223.615 127.742 226.099C127.776 228.151 127.928 230.203 127.978 232.255C128.011 233.665 127.197 234.395 125.839 234.273C124.905 234.19 124.347 233.802 124.365 232.741C124.404 230.784 124.347 228.823 124.38 226.865C124.394 226.005 124.209 225.536 123.198 225.57C119.859 225.68 116.518 225.711 113.179 225.791C112.576 225.805 111.943 225.743 111.949 226.727C111.98 232.361 111.964 237.995 111.964 243.942C112.993 243.289 113.727 242.772 114.51 242.343C115.275 241.924 116.229 241.145 116.889 242.227C117.549 243.309 116.687 244.082 115.8 244.653C113.499 246.202 110.919 247.289 108.204 247.854C100.303 249.346 92.5374 249.09 85.0911 245.711C79.3095 243.086 74.4446 239.338 73.0386 232.828C73.0302 232.828 66.4711 200.661 94.1189 205.894Z" fill="white"/>
<path d="M38.3896 246.385C31.9655 247.085 26.5721 244.506 21.3312 241.438C19.1117 240.138 16.9953 238.66 14.6477 237.582C11.1798 235.991 7.44865 235.88 3.74053 235.646C3.312 235.619 2.8745 235.666 2.45494 235.597C2.19295 235.556 1.95226 235.429 1.77174 235.234C1.59123 235.04 1.48146 234.791 1.46019 234.526C1.36347 233.937 1.77662 233.656 2.20899 233.44C2.47475 233.335 2.75254 233.263 3.03594 233.227C5.19971 232.76 5.20162 232.761 5.20162 230.462C5.20162 225.827 5.17536 221.194 5.20803 216.56C5.2234 214.462 5.38993 212.364 5.42196 210.266C5.4463 208.666 4.35417 208.065 2.9565 208.891C2.2519 209.308 1.60496 209.909 0.784417 209.179C0.442788 208.873 0.197851 208.473 0.0796373 208.03C-0.0385759 207.586 -0.0249306 207.117 0.118889 206.681C0.368702 205.737 1.21615 205.621 2.06871 205.561C3.30433 205.474 4.53414 205.305 5.76976 205.21C8.0232 205.036 8.89947 205.769 8.8905 208.012C8.87385 212.451 8.72076 216.891 8.72012 221.33C8.72012 224.719 8.57665 228.11 8.84824 231.499C8.92831 232.505 9.19156 233.076 10.2664 233.226C14.7355 233.848 18.4045 236.236 22.2011 238.468C25.8663 240.624 29.4578 243.22 33.8116 243.75C37.5344 244.204 41.3335 244.386 45.0397 243.383C47.2304 242.79 47.9984 241.548 47.3251 239.904C47.1409 239.408 46.7857 238.993 46.3234 238.736C44.8684 237.986 43.2112 237.726 41.5968 237.992C40.8339 238.091 40.4438 238.441 41.206 239.191C42.0714 240.044 41.8466 240.75 40.6853 241.075C40.0166 241.273 39.2994 241.23 38.6595 240.952C38.0196 240.674 37.4979 240.179 37.186 239.555C36.6658 238.377 37.1681 237.172 38.5363 236.315C41.2759 234.598 46.5187 235.045 48.9233 237.201C51.62 239.62 51.0205 243.509 47.6807 245.075C46.2213 245.791 44.6411 246.228 43.0213 246.364C41.4514 246.466 39.8744 246.385 38.3896 246.385Z" fill="white"/>
<path d="M139.14 215.006C141.811 215.006 144.482 214.973 147.152 215.017C148.932 215.047 149.869 215.722 149.79 216.77C149.705 217.908 148.626 218.395 146.803 218.035C143.397 217.366 139.964 217.594 136.533 217.637C135.394 217.651 134.938 218.175 134.91 219.296C134.86 220.249 134.747 221.197 134.574 222.136C134.472 222.782 134.681 223.251 135.336 223.21C138.77 222.999 142.296 223.716 145.606 222.216C145.873 222.05 146.187 221.974 146.501 221.998C146.815 222.023 147.113 222.147 147.352 222.352C147.585 222.659 147.739 223.018 147.8 223.399C147.861 223.779 147.827 224.169 147.701 224.533C147.552 225.217 146.997 225.313 146.379 225.37C143.858 225.569 141.329 225.641 138.801 225.586C137.896 225.579 136.987 225.761 136.105 225.763C134.485 225.769 134.046 226.454 134.237 227.937C134.4 229.202 133.725 230.835 134.51 231.673C135.314 232.528 136.952 231.922 138.22 231.946C140.366 231.986 142.512 231.917 144.659 231.904C145.852 231.97 147.043 231.743 148.127 231.243C148.804 230.891 149.681 230.708 150.038 231.719C150.376 232.676 150.422 233.66 149.172 234.048C148.407 234.315 147.605 234.462 146.795 234.484C142.55 234.466 138.304 234.484 134.059 234.475C131.791 234.47 131.196 233.826 131.142 231.625C131.038 227.521 131.254 223.416 131.789 219.346C131.912 218.416 131.709 217.838 130.632 217.681C129.743 217.553 128.935 217.12 129.204 215.965C129.447 214.921 130.285 214.889 131.132 214.97C133.8 215.22 136.471 215.02 139.14 215.006Z" fill="white"/>
<path d="M163.155 234.21C162.87 234.217 162.585 234.201 162.303 234.161C160.821 233.905 160.629 233.111 161.313 231.71C163.4 227.433 166.149 223.502 167.852 219.03C168.161 218.384 168.322 217.677 168.323 216.961C168.191 215.73 168.771 215.334 169.812 215.188C171.692 214.867 173.612 214.861 175.494 215.172C176.924 215.449 177.152 216.108 176.255 217.216C175.725 217.872 175.995 218.275 176.362 218.842C178.98 222.877 181.675 226.868 183.966 231.106C184.372 231.858 184.866 232.672 184.039 233.448C183.255 234.182 181.894 233.871 181.258 232.75C180.596 231.592 180.014 230.391 179.516 229.154C178.698 227.093 177.513 225.855 175.037 226.112C173.039 226.234 171.035 226.231 169.037 226.102C168.66 226.064 168.28 226.145 167.952 226.335C167.624 226.525 167.365 226.815 167.211 227.161C166.698 228.128 166.043 229.016 165.506 229.97C165.31 230.241 165.179 230.554 165.123 230.884C165.067 231.214 165.086 231.552 165.18 231.873C165.902 233.839 165.614 234.221 163.155 234.21ZM172.361 223.373V223.363C173.119 223.363 173.876 223.368 174.634 223.363C175.158 223.359 175.523 223.215 175.131 222.615C174.226 221.228 173.318 219.843 172.386 218.475C172.08 218.026 171.717 217.974 171.406 218.513C170.743 219.659 170.04 220.783 169.42 221.952C168.896 222.938 169.182 223.464 170.374 223.382C171.034 223.334 171.699 223.372 172.363 223.372L172.361 223.373Z" fill="white"/>
<path d="M38.8834 224.571C38.959 226.52 38.7841 228.483 39.1396 230.423C39.1728 230.901 39.3392 231.36 39.6199 231.747C39.9006 232.135 40.2844 232.436 40.7276 232.616C40.9866 232.681 41.2134 232.837 41.3658 233.056C41.5183 233.276 41.586 233.543 41.5564 233.808C41.4853 234.45 41.0273 234.683 40.5174 234.843C39.1768 235.268 37.8131 235.592 36.5634 234.64C36.2555 234.41 35.8886 234.273 35.5056 234.245C35.1226 234.216 34.7395 234.297 34.4009 234.479C30.7428 235.991 27.2652 235.008 23.8729 233.633C21.5631 232.698 20.6497 230.657 20.3729 228.298C20.1028 225.868 20.4505 223.409 21.3837 221.15C21.7367 220.261 22.039 219.453 20.6003 219.295C20.3851 219.252 20.1911 219.137 20.0511 218.968C19.9111 218.799 19.8336 218.587 19.8317 218.367C19.8008 218.126 19.8516 217.883 19.9757 217.674C20.0999 217.466 20.2903 217.306 20.5164 217.219C21.6764 216.647 22.968 216.394 24.2579 216.488C25.3666 216.577 25.913 217.724 25.5031 219.059C25.2103 220.012 24.762 220.919 24.4078 221.85C23.8567 223.223 23.5275 224.674 23.4328 226.15C23.2784 229.42 24.5467 231.318 27.7245 232.131C30.1169 232.743 32.5286 232.965 34.6975 231.317C35.1326 231.023 35.4761 230.611 35.6888 230.131C35.9014 229.65 35.9745 229.119 35.8998 228.598C35.696 226.219 35.6404 223.83 35.7332 221.444C35.7588 220.392 35.8082 219.392 35.0331 218.483C34.4618 217.812 34.9569 217.171 35.5987 216.861C36.4564 216.448 37.4025 216.046 38.143 217.122C38.7011 218.075 38.9579 219.174 38.8796 220.275C38.902 221.707 38.8834 223.139 38.8834 224.571Z" fill="white"/>
<path d="M44.8911 235.018C44.5621 234.984 44.2358 234.929 43.9143 234.852C42.6204 234.5 42.491 233.853 43.0925 232.629C45.2511 228.231 48.0682 224.174 49.815 219.565C50.0908 219.005 50.212 218.382 50.166 217.759C49.9495 216.528 50.6656 216.076 51.6476 215.953C53.4901 215.688 55.3593 215.669 57.2069 215.895C58.7224 216.108 58.9908 216.816 58.0614 218.069C57.5432 218.768 57.9576 219.172 58.2971 219.701C60.8163 223.631 63.4247 227.506 65.6634 231.606C66.1425 232.484 66.9547 233.488 65.6864 234.352C64.7294 235.003 63.5265 234.437 62.8315 233.056C62.1685 231.739 61.5857 230.382 60.9554 229.048C60.3251 227.714 59.4545 226.864 57.7737 226.936C55.5895 227.031 53.3944 226.872 51.2037 226.823C50.7552 226.765 50.2996 226.851 49.9038 227.07C49.508 227.29 49.1927 227.63 49.0041 228.042C48.5634 228.934 47.9395 229.735 47.4379 230.6C47.2254 230.889 47.079 231.222 47.0093 231.575C46.9396 231.928 46.9481 232.291 47.0344 232.64C47.682 234.61 47.3329 235.068 44.8911 235.018ZM54.1899 224.191V224.186C54.9534 224.186 55.717 224.179 56.4799 224.186C57.2223 224.195 57.3126 223.832 56.9596 223.296C56.0731 221.939 55.1661 220.596 54.252 219.256C53.8722 218.702 53.5474 218.733 53.2182 219.356C52.7294 220.281 52.1664 221.167 51.6495 222.077C51.3478 222.609 50.8021 223.185 51.0788 223.769C51.4285 224.507 52.2708 224.115 52.903 224.178C53.3284 224.224 53.7607 224.19 54.1899 224.19V224.191Z" fill="white"/>
<path d="M155.385 215.379C156.281 215.303 157.182 215.186 158.083 215.165C158.747 215.15 159.45 215.188 159.642 216.07C159.691 216.231 159.705 216.402 159.682 216.569C159.66 216.736 159.602 216.897 159.512 217.039C159.422 217.182 159.302 217.304 159.161 217.396C159.02 217.488 158.86 217.549 158.694 217.574C157.486 217.921 157.179 218.728 157.102 219.914C156.874 223.441 157.017 226.968 156.974 230.495C156.964 231.329 157.222 231.831 158.134 231.97C158.828 232.077 159.645 232.284 159.494 233.271C159.353 234.187 158.631 234.489 157.798 234.45C156.087 234.372 154.376 234.252 152.667 234.129C152.402 234.144 152.139 234.067 151.925 233.909C151.711 233.752 151.558 233.525 151.493 233.267C151.455 233.127 151.446 232.98 151.467 232.837C151.488 232.693 151.538 232.555 151.614 232.432C151.691 232.309 151.792 232.202 151.911 232.12C152.03 232.037 152.165 231.98 152.307 231.951C153.686 231.474 153.9 230.48 153.894 229.154C153.88 225.915 154.014 222.678 154.102 219.435C154.127 218.517 154.026 217.722 152.949 217.429C152.83 217.41 152.717 217.365 152.618 217.297C152.519 217.228 152.437 217.138 152.378 217.033C152.319 216.928 152.284 216.811 152.277 216.691C152.269 216.57 152.289 216.45 152.335 216.339C152.372 216.077 152.495 215.836 152.685 215.653C152.875 215.47 153.121 215.356 153.384 215.329C154.045 215.274 154.715 215.317 155.382 215.317L155.385 215.379Z" fill="white"/>
<path d="M159.488 46.606C164.62 50.0591 169.54 53.9247 175.543 55.7183C172.508 61.344 171.793 67.6912 170.557 73.8768C169.293 80.206 167.07 87.9966 160.064 89.9723C160.055 89.9723 160.05 89.98 160.042 89.9826C160.019 89.9898 159.998 90.0001 159.978 90.0134C159.958 90.0253 159.941 90.04 159.925 90.057C159.896 90.006 159.853 89.9647 159.8 89.9384C158.989 89.5499 158.233 89.0554 157.552 88.4679C162.204 86.5147 164.371 81.4987 165.362 76.7836C166.675 70.548 167.517 64.297 169.851 58.3186C169.872 58.2407 169.867 58.158 169.837 58.0832C169.807 58.0084 169.752 57.9457 169.683 57.9049C164.075 55.4464 159.182 51.8823 154.141 48.474C149.937 45.6326 144.652 43.2727 139.692 45.2914C139.756 44.3946 139.939 43.5104 140.237 42.6623C140.256 42.6043 140.258 42.5417 140.242 42.4827C140.298 42.4876 140.353 42.4753 140.402 42.4474C146.885 38.8333 154.055 42.9502 159.488 46.606ZM137.738 48.6305C136.769 50.939 133.83 53.2578 131.521 50.9435C129.386 48.8062 131.257 45.9474 133.419 44.8912C135.158 44.0416 137.146 43.8653 139.021 43.4369C138.622 45.1741 138.43 46.9805 137.738 48.6305ZM95.0131 28.6232C95.9554 30.9394 95.5173 34.6561 92.2492 34.6561C89.2316 34.6561 88.534 31.3133 89.3155 29.0361C89.9445 27.2028 91.2269 25.6695 92.2505 24.0395C93.1978 25.5541 94.3399 26.9681 95.0151 28.6264L95.0131 28.6232ZM50.6694 44.7188C52.9754 45.6877 55.2916 48.6272 52.9793 50.9422C50.8443 53.0795 47.9888 51.2064 46.9338 49.0415C46.0851 47.3011 45.9089 45.3106 45.481 43.4343C47.2163 43.8345 49.0226 44.0262 50.6714 44.72L50.6694 44.7188ZM30.6845 87.4907C32.9981 86.5474 36.7107 86.986 36.7107 90.2577C36.7107 93.2787 33.3715 93.977 31.097 93.194C29.2656 92.5643 27.7347 91.2811 26.1058 90.2564C27.6201 89.3093 29.0325 88.1659 30.6902 87.4901L30.6845 87.4907ZM46.7621 131.884C47.7306 129.575 50.6695 127.256 52.9786 129.571C55.1136 131.708 53.2425 134.567 51.0807 135.624C49.3416 136.473 47.3534 136.65 45.4791 137.078C45.8801 135.339 46.0716 133.534 46.7647 131.883L46.7621 131.884ZM89.4865 151.891C88.5443 149.575 88.9824 145.859 92.2505 145.859C95.2681 145.859 95.9656 149.201 95.1842 151.479C94.5551 153.312 93.2728 154.845 92.2492 156.475C91.3044 154.96 90.1623 153.546 89.4872 151.887L89.4865 151.891ZM133.83 135.795C131.524 134.826 129.209 131.884 131.52 129.572C133.655 127.435 136.511 129.308 137.566 131.472C138.415 133.213 138.591 135.203 139.019 137.08C137.283 136.68 135.48 136.488 133.831 135.794L133.83 135.795ZM153.815 93.0234C151.502 93.9674 147.789 93.5288 147.789 90.2571C147.789 87.2361 151.128 86.5378 153.403 87.3201C155.234 87.9498 156.765 89.2336 158.394 90.2583C156.882 91.2048 155.468 92.3476 153.813 93.0234H153.815ZM108.613 11.8639C114.792 10.6269 121.132 9.91127 126.752 6.87235C128.545 12.8822 132.404 17.8077 135.854 22.9455C139.505 28.3853 143.618 35.5641 140.004 42.0505C139.976 42.0987 139.964 42.1546 139.969 42.2102C139.91 42.1939 139.848 42.1957 139.79 42.2153C138.943 42.5144 138.06 42.7003 137.164 42.7681C139.186 37.8009 136.827 32.5079 133.988 28.2961C130.583 23.2488 127.023 18.3502 124.567 12.7367C124.526 12.6669 124.464 12.6125 124.389 12.5821C124.314 12.5517 124.232 12.5469 124.154 12.5686C118.182 14.9054 111.938 15.748 105.71 17.0613C101 18.0546 95.9887 20.2233 94.0382 24.8846C93.4505 24.2026 92.9557 23.4455 92.5669 22.6332C92.5404 22.5796 92.4988 22.535 92.4471 22.5049C92.4887 22.4698 92.5186 22.4228 92.533 22.3703C94.5084 15.3555 102.291 13.1291 108.613 11.8639ZM48.6485 22.9455C52.0979 17.8077 55.9591 12.8822 57.7507 6.87235C63.3702 9.91127 69.7103 10.6269 75.8897 11.8639C82.2112 13.1291 89.9932 15.3549 91.9674 22.369C91.9817 22.4215 92.0116 22.4685 92.0532 22.5036C92.0015 22.5337 91.9599 22.5783 91.9334 22.6319C91.5454 23.4441 91.0514 24.2011 90.4646 24.8834C88.5142 20.2253 83.5032 18.0565 78.7932 17.06C72.5646 15.7467 66.3205 14.9041 60.3487 12.5674C60.271 12.5456 60.1883 12.5503 60.1135 12.5807C60.0387 12.6111 59.9761 12.6655 59.9356 12.7354C57.4797 18.349 53.9196 23.2475 50.5151 28.2948C47.6768 32.5028 45.3196 37.7945 47.3361 42.7591C46.4403 42.6953 45.5571 42.512 44.7098 42.214C44.6519 42.1944 44.5894 42.1926 44.5305 42.2089C44.5357 42.1533 44.5233 42.0975 44.4952 42.0492C40.8845 35.5655 44.9968 28.3846 48.6485 22.9455ZM8.95904 55.7183C14.9622 53.9227 19.8829 50.0591 25.0143 46.606C30.4481 42.9508 37.619 38.832 44.0981 42.4506C44.1464 42.4785 44.2021 42.4908 44.2576 42.4859C44.2414 42.5449 44.2432 42.6075 44.2627 42.6655C44.5615 43.5137 44.7472 44.3977 44.8149 45.2946C39.8532 43.2702 34.5661 45.6313 30.359 48.474C25.3173 51.8823 20.4242 55.4464 14.8168 57.9049C14.7472 57.9457 14.693 58.0084 14.6627 58.0832C14.6323 58.158 14.6275 58.2407 14.649 58.3186C16.9831 64.297 17.8249 70.548 19.1367 76.7836C20.1289 81.4987 22.2952 86.5147 26.9514 88.4679C26.2699 89.0554 25.5136 89.5499 24.7024 89.9384C24.6488 89.9649 24.6043 90.0065 24.5743 90.0583C24.5394 90.0164 24.4924 89.9864 24.4398 89.9723C17.4341 87.9941 15.2101 80.2034 13.9463 73.8768C12.7094 67.6912 11.9946 61.344 8.95904 55.7183ZM14.649 122.193C14.6274 122.271 14.6322 122.353 14.6626 122.428C14.693 122.503 14.7472 122.565 14.8168 122.606C20.4242 125.065 25.3173 128.629 30.359 132.038C34.5623 134.879 39.8481 137.239 44.8078 135.22C44.7436 136.117 44.5603 137.001 44.2627 137.849C44.2432 137.907 44.2414 137.969 44.2576 138.028C44.202 138.024 44.1463 138.036 44.0981 138.064C37.6203 141.681 30.4474 137.564 25.0143 133.909C19.8823 130.456 14.9622 126.59 8.95904 124.797C11.9946 119.17 12.7094 112.824 13.945 106.637C15.2088 100.309 17.4322 92.5175 24.4385 90.5418C24.4913 90.5277 24.5383 90.4975 24.573 90.4552C24.6026 90.5072 24.6473 90.549 24.7011 90.5751C25.5124 90.9638 26.2686 91.4585 26.9501 92.0462C22.2978 93.9988 20.1308 99.0154 19.1354 103.731L14.649 122.193ZM75.8877 168.653C69.7084 169.89 63.3683 170.605 57.7488 173.644C55.9552 167.634 52.096 162.708 48.6466 157.571C44.9955 152.131 40.8813 144.953 44.4959 138.466C44.5237 138.418 44.536 138.362 44.5311 138.307C44.59 138.323 44.6525 138.321 44.7105 138.301C45.5577 138.002 46.4408 137.816 47.3367 137.749C45.3145 142.716 47.673 148.009 50.5125 152.22C53.917 157.268 57.4772 162.166 59.933 167.779C59.9737 167.849 60.0362 167.904 60.1109 167.934C60.1857 167.965 60.2684 167.97 60.3462 167.948C66.318 165.611 72.5627 164.768 78.7907 163.455C83.5006 162.462 88.5116 160.293 90.4621 155.635C91.0489 156.317 91.5428 157.075 91.9308 157.887C91.957 157.941 91.9988 157.985 92.0506 158.015C92.009 158.05 91.979 158.098 91.9648 158.15C89.9938 165.159 82.2112 167.385 75.8897 168.648L75.8877 168.653ZM135.852 157.571C132.402 162.708 128.541 167.634 126.75 173.644C121.13 170.605 114.79 169.89 108.611 168.653C102.289 167.388 94.5071 165.162 92.533 158.148C92.5187 158.095 92.4888 158.048 92.4471 158.012C92.499 157.983 92.5407 157.938 92.5669 157.884C92.9549 157.072 93.4489 156.315 94.0357 155.633C95.9861 160.29 100.997 162.459 105.707 163.452C111.936 164.765 118.179 165.609 124.152 167.945C124.229 167.967 124.312 167.962 124.387 167.932C124.461 167.901 124.524 167.847 124.564 167.777C127.021 162.164 130.581 157.265 133.985 152.217C136.823 148.01 139.181 142.718 137.164 137.753C138.06 137.817 138.943 138.001 139.79 138.299C139.848 138.318 139.911 138.32 139.97 138.304C139.965 138.36 139.977 138.415 140.005 138.464C143.618 144.949 139.505 152.129 135.854 157.569L135.852 157.571ZM175.541 124.798C169.538 126.594 164.617 130.458 159.486 133.911C154.052 137.566 146.881 141.684 140.402 138.066C140.354 138.038 140.298 138.025 140.243 138.03C140.259 137.971 140.257 137.909 140.238 137.851C139.939 137.003 139.753 136.119 139.685 135.222C144.647 137.247 149.934 134.885 154.141 132.043C159.183 128.634 164.076 125.07 169.683 122.611C169.753 122.571 169.807 122.508 169.838 122.433C169.868 122.359 169.873 122.276 169.851 122.198C167.517 116.22 166.675 109.968 165.363 103.733C164.371 99.0179 162.205 94.0014 157.552 92.0487C158.234 91.461 158.99 90.9664 159.801 90.5777C159.795 90.5551 159.797 90.5309 159.808 90.5098C159.818 90.4887 159.835 90.472 159.857 90.463C159.879 90.4539 159.903 90.4529 159.925 90.4604C159.947 90.4678 159.966 90.483 159.978 90.5033C159.998 90.5167 160.019 90.527 160.042 90.5341C160.05 90.5341 160.054 90.5424 160.062 90.5444L160.091 90.5533C167.073 92.5457 169.293 100.322 170.555 106.642C171.793 112.823 172.507 119.169 175.543 124.796L175.541 124.798Z" fill="white"/>
<path d="M156.002 26.4352C155.356 32.6606 157.019 38.689 158.255 44.7399L157.829 44.4796C152.825 41.4599 146.568 38.8185 140.949 41.5054C143.633 35.879 140.994 29.6158 137.977 24.6063C137.891 24.464 137.804 24.3216 137.721 24.1799C143.762 25.4175 149.784 27.0823 156.002 26.4352Z" fill="#E8E6FF"/>
<path d="M92.2511 0C96.1873 4.8601 101.627 7.94516 106.773 11.3502C106.466 11.4246 106.159 11.4997 105.853 11.5779C100.325 12.9938 94.2669 15.587 92.2511 21.3096C90.2353 15.5877 84.1803 12.9938 78.6498 11.5779C78.3436 11.4997 78.0368 11.4246 77.7293 11.3502C82.8761 7.94516 88.315 4.86074 92.2511 0Z" fill="#E8E6FF"/>
<path d="M28.5002 26.4352C34.7186 27.0823 40.741 25.4175 46.7846 24.1799C46.6981 24.3216 46.611 24.464 46.5284 24.6063C43.5114 29.6158 40.873 35.879 43.5569 41.5054C37.9367 38.8179 31.6805 41.4592 26.6766 44.4796C26.5344 44.5655 26.3922 44.6534 26.2506 44.7399C27.4836 38.689 29.1465 32.6606 28.5002 26.4352Z" fill="#E8E6FF"/>
<path d="M2.09436 90.2571C6.9497 86.3165 10.0307 80.871 13.432 75.7191C13.5063 76.0269 13.5813 76.3341 13.6594 76.6406C15.0744 82.1734 17.6648 88.239 23.3803 90.2571C17.6648 92.2751 15.0744 98.3369 13.6594 103.874C13.5813 104.18 13.5063 104.487 13.432 104.795C10.0307 99.6425 6.9497 94.1976 2.09436 90.2571Z" fill="#E8E6FF"/>
<path d="M28.5002 154.078C29.1465 147.854 27.4837 141.824 26.2474 135.774C26.389 135.861 26.5312 135.948 26.6734 136.034C31.6773 139.054 37.9342 141.696 43.5537 139.009C40.8691 144.635 43.5082 150.898 46.5252 155.908C46.611 156.05 46.6981 156.193 46.7814 156.334C40.7404 155.097 34.7186 153.432 28.5002 154.078Z" fill="#E8E6FF"/>
<path d="M92.2511 180.514C88.315 175.653 82.8755 172.569 77.7293 169.164C78.0368 169.09 78.3436 169.015 78.6498 168.936C84.1771 167.52 90.2353 164.927 92.2511 159.205C94.2669 164.927 100.322 167.52 105.853 168.936C106.159 169.015 106.466 169.09 106.773 169.164C101.626 172.569 96.1873 175.653 92.2511 180.514Z" fill="#E8E6FF"/>
<path d="M156.002 154.078C149.784 153.432 143.761 155.097 137.718 156.334C137.804 156.193 137.891 156.05 137.974 155.908C140.991 150.898 143.629 144.634 140.945 139.009C146.566 141.696 152.822 139.054 157.826 136.034C157.968 135.948 158.11 135.861 158.252 135.774C157.019 141.824 155.356 147.854 156.002 154.078Z" fill="#E8E6FF"/>
<path d="M171.072 104.795C170.999 104.487 170.923 104.18 170.845 103.874C169.431 98.3401 166.84 92.2751 161.125 90.2571C166.84 88.239 169.431 82.1734 170.845 76.6406C170.924 76.3341 170.999 76.0269 171.072 75.7191C174.472 80.871 177.553 86.3165 182.41 90.2571C177.553 94.1976 174.472 99.6425 171.072 104.795Z" fill="#E8E6FF"/>
<path d="M133.587 63.4217C136.741 65.5443 139.766 67.9208 143.457 69.0231C141.591 72.482 141.151 76.3841 140.392 80.1867C139.614 84.0779 138.248 88.8674 133.94 90.0833C133.935 90.0833 133.932 90.0884 133.927 90.0903C133.913 90.0946 133.901 90.1008 133.889 90.1089C133.877 90.1163 133.866 90.1254 133.857 90.1359C133.839 90.1045 133.812 90.079 133.78 90.0628C133.281 89.8237 132.816 89.5197 132.397 89.1586C135.258 87.9582 136.59 84.8743 137.201 81.9765C138.008 78.1431 138.525 74.3006 139.961 70.6262C139.975 70.578 139.972 70.5265 139.953 70.48C139.935 70.4335 139.901 70.3947 139.857 70.3697C136.41 68.8583 133.402 66.6671 130.303 64.5714C127.719 62.8247 124.469 61.3735 121.42 62.615C121.46 62.0639 121.572 61.5204 121.755 60.999C121.767 60.9635 121.768 60.9249 121.758 60.8887C121.792 60.8917 121.827 60.8841 121.856 60.8669C125.837 58.643 130.246 61.1728 133.587 63.4217ZM120.215 64.6664C119.62 66.0842 117.815 67.511 116.393 66.0881C115.081 64.7741 116.231 63.0164 117.56 62.3687C118.67 61.9399 119.826 61.64 121.004 61.4748C120.833 62.5593 120.569 63.6271 120.215 64.6664ZM93.9524 52.3683C94.5321 53.7919 94.2631 56.0767 92.2537 56.0767C90.3961 56.0767 89.9701 54.0215 90.4506 52.6223C90.9323 51.5324 91.5375 50.5016 92.2543 49.55C92.8997 50.4387 93.4669 51.3817 93.9498 52.3683H93.9524ZM66.6889 62.2629C68.1051 62.8587 69.5303 64.6657 68.1089 66.0887C66.7965 67.4026 65.0414 66.2509 64.3938 64.9203C63.9655 63.8091 63.6659 62.6524 63.5009 61.4729C64.5842 61.6441 65.6508 61.9084 66.6889 62.2629ZM54.4045 88.5545C55.8265 87.9774 58.1087 88.2442 58.1087 90.2558C58.1087 92.1154 56.059 92.5419 54.6582 92.0609C53.5695 91.5786 52.5398 90.9727 51.5893 90.2551C52.4771 89.6083 53.419 89.0394 54.4045 88.5545ZM64.2874 115.846C64.8825 114.429 66.6876 113.002 68.1089 114.425C69.4214 115.739 68.271 117.496 66.9419 118.144C65.8319 118.573 64.6765 118.873 63.4983 119.038C63.6697 117.954 63.9337 116.887 64.2874 115.848V115.846ZM90.5498 128.145C89.9701 126.721 90.2392 124.435 92.2486 124.435C94.1061 124.435 94.5321 126.491 94.0517 127.891C93.5698 128.98 92.9645 130.011 92.2479 130.963C91.6027 130.074 91.0355 129.132 90.5524 128.146L90.5498 128.145ZM117.811 118.251C116.395 117.655 114.969 115.848 116.391 114.425C117.703 113.111 119.458 114.263 120.106 115.593C120.534 116.704 120.834 117.861 120.999 119.041C119.916 118.869 118.851 118.605 117.813 118.252L117.811 118.251ZM130.095 91.959C128.673 92.5361 126.391 92.2693 126.391 90.2583C126.391 88.3987 128.441 87.9722 129.842 88.4532C130.93 88.9355 131.96 89.5414 132.91 90.259C132.023 90.905 131.082 91.4733 130.098 91.9577L130.095 91.959ZM131.761 54.0606C131.761 54.119 131.766 54.1779 131.769 54.2363C131.764 54.1773 131.76 54.119 131.756 54.06L131.761 54.0606ZM128.409 50.7049V50.7087L128.233 50.6966L128.409 50.7049ZM102.31 42.0633C106.109 41.3034 110.006 40.8629 113.461 38.9949C114.563 42.6898 116.936 45.7179 119.057 48.876C121.302 52.2202 123.831 56.6353 121.609 60.6213C121.591 60.651 121.584 60.6853 121.587 60.7194C121.551 60.7097 121.512 60.7108 121.477 60.7227C120.955 60.907 120.412 61.0213 119.861 61.0625C121.104 58.0088 119.654 54.7538 117.908 52.1657C115.815 49.0627 113.626 46.0513 112.116 42.6C112.091 42.5567 112.052 42.5229 112.006 42.5042C111.96 42.4855 111.908 42.4829 111.86 42.4968C108.189 43.9332 104.35 44.4513 100.522 45.2587C97.6266 45.8698 94.5462 47.203 93.3484 50.0681C92.9873 49.649 92.6836 49.1837 92.4452 48.6843C92.4289 48.6517 92.4032 48.6246 92.3715 48.6067C92.3972 48.5851 92.4157 48.5563 92.4247 48.524C93.6392 44.2096 98.4234 42.8405 102.31 42.0633ZM74.2537 39.9632L74.0897 39.91V39.9068L74.2537 39.9632ZM65.4481 48.876C67.5683 45.7179 69.9422 42.6898 71.0439 38.9949C74.4984 40.8629 78.3961 41.3034 82.1952 42.0633C86.0814 42.8412 90.8656 44.2096 92.0801 48.5221C92.0893 48.5543 92.1077 48.5831 92.1332 48.6048C92.1015 48.6227 92.0759 48.6498 92.0596 48.6824C91.8212 49.1818 91.5175 49.6471 91.1564 50.0662C89.9573 47.203 86.8769 45.8698 83.9823 45.2568C80.1538 44.4494 76.315 43.9313 72.6446 42.4949C72.5966 42.4811 72.5453 42.4837 72.4989 42.5024C72.4524 42.5211 72.4136 42.5548 72.3885 42.5981C70.8787 46.0494 68.6899 49.0607 66.5966 52.1637C64.8518 54.7506 63.4022 58.0043 64.6423 61.0561C64.0917 61.0169 63.5488 60.9041 63.0281 60.7207C62.9925 60.7089 62.9542 60.7078 62.918 60.7175C62.9209 60.6834 62.9133 60.6491 62.8962 60.6194C60.6722 56.634 63.2004 52.2195 65.4455 48.8754L65.4481 48.876ZM41.0478 69.0237C44.7386 67.9214 47.7633 65.5449 50.9186 63.4223C54.2584 61.1747 58.6692 58.643 62.6502 60.8675C62.6801 60.8847 62.7145 60.8923 62.7489 60.8893C62.7377 60.9253 62.7377 60.9638 62.7489 60.9997C62.933 61.5216 63.0472 62.0656 63.0883 62.6175C60.0381 61.3729 56.7867 62.8247 54.2014 64.5721C51.1018 66.6678 48.0938 68.8589 44.647 70.3704C44.6035 70.3953 44.5696 70.4341 44.5508 70.4806C44.532 70.5271 44.5294 70.5787 44.5433 70.6269C45.9781 74.3026 46.4963 78.1456 47.3027 81.9771C47.9125 84.8763 49.2442 87.9601 52.1068 89.1592C51.688 89.5205 51.2232 89.8245 50.7245 90.0634C50.6921 90.0799 50.6652 90.1056 50.647 90.1372C50.6255 90.1115 50.5967 90.0929 50.5644 90.0839C46.2574 88.8655 44.8905 84.0786 44.1128 80.1874C43.3512 76.3841 42.9112 72.482 41.0453 69.0231L41.0478 69.0237ZM50.9186 117.093C47.7633 114.971 44.7386 112.594 41.0478 111.491C42.9137 108.033 43.3538 104.131 44.1128 100.327C44.8905 96.4369 46.2567 91.6473 50.5644 90.4309C50.5967 90.4224 50.6256 90.404 50.647 90.3783C50.6652 90.4099 50.6921 90.4355 50.7245 90.452C51.2232 90.6907 51.688 90.9945 52.1068 91.3555C49.2468 92.5566 47.9151 95.6404 47.3027 98.5376C46.4963 102.371 45.9788 106.214 44.5433 109.888C44.5295 109.936 44.5322 109.988 44.551 110.034C44.5698 110.081 44.6036 110.119 44.647 110.144C48.0938 111.656 51.1018 113.847 54.2014 115.943C56.7854 117.689 60.0355 119.14 63.0839 117.899C63.0447 118.45 62.932 118.994 62.7489 119.515C62.7377 119.551 62.7377 119.589 62.7489 119.625C62.7145 119.622 62.68 119.63 62.6502 119.647C58.6654 121.871 54.2559 119.34 50.9161 117.091L50.9186 117.093ZM82.1901 138.451C78.391 139.211 74.4933 139.651 71.0388 141.52C69.9371 137.825 67.5632 134.797 65.443 131.638C63.2011 128.294 60.669 123.879 62.8911 119.893C62.9082 119.863 62.9158 119.829 62.9128 119.795C62.949 119.805 62.9875 119.804 63.023 119.791C63.5444 119.608 64.0878 119.494 64.6391 119.452C63.3958 122.506 64.846 125.761 66.5915 128.348C68.6848 131.452 70.8736 134.463 72.3833 137.914C72.4083 137.958 72.4471 137.991 72.4935 138.01C72.54 138.029 72.5914 138.032 72.6395 138.018C76.3111 136.581 80.1499 136.063 83.9772 135.255C86.8731 134.645 89.9535 133.312 91.1513 130.446C91.5123 130.865 91.8159 131.331 92.0545 131.83C92.0709 131.863 92.0965 131.89 92.1281 131.908C92.1023 131.93 92.0838 131.958 92.0749 131.991C90.863 136.305 86.0788 137.675 82.1901 138.451ZM119.054 131.638C116.934 134.797 114.56 137.825 113.458 141.52C110.004 139.651 106.106 139.211 102.307 138.451C98.4209 137.673 93.6366 136.305 92.4221 131.993C92.4133 131.96 92.3948 131.931 92.369 131.91C92.4006 131.892 92.4262 131.865 92.4426 131.832C92.6812 131.333 92.9848 130.867 93.3458 130.448C94.5449 133.312 97.6253 134.645 100.52 135.257C104.348 136.065 108.187 136.583 111.858 138.02C111.906 138.034 111.957 138.031 112.004 138.012C112.05 137.993 112.089 137.96 112.114 137.916C113.624 134.465 115.812 131.454 117.906 128.35C119.65 125.764 121.099 122.51 119.86 119.459C120.41 119.498 120.953 119.611 121.474 119.793C121.51 119.806 121.548 119.807 121.584 119.797C121.581 119.831 121.589 119.865 121.606 119.895C123.83 123.88 121.302 128.295 119.057 131.638H119.054ZM143.454 111.49C139.764 112.593 136.739 114.97 133.584 117.092C130.244 119.34 125.834 121.872 121.852 119.647C121.822 119.63 121.788 119.622 121.753 119.625C121.764 119.589 121.763 119.551 121.75 119.515C121.567 118.993 121.453 118.449 121.411 117.897C124.462 119.142 127.713 117.69 130.298 115.943C133.398 113.847 136.406 111.656 139.853 110.144C139.896 110.12 139.93 110.081 139.949 110.034C139.968 109.988 139.97 109.936 139.956 109.888C138.521 106.212 138.003 102.369 137.197 98.5376C136.587 95.6391 135.255 92.5553 132.393 91.3555C132.812 90.9946 133.277 90.6908 133.776 90.452C133.808 90.4355 133.835 90.4101 133.853 90.3789C133.862 90.3895 133.873 90.3986 133.885 90.4058C133.897 90.4136 133.91 90.4201 133.923 90.4251C133.928 90.4251 133.931 90.4296 133.936 90.4309L133.953 90.4366C138.245 91.6614 139.61 96.442 140.386 100.327C141.151 104.13 141.59 108.032 143.457 111.49H143.454Z" fill="white"/>
<path d="M131.444 51.021C131.046 54.8481 132.068 58.5545 132.828 62.2745L132.566 62.1142C129.492 60.2545 125.644 58.6341 122.19 60.2859C123.84 56.827 122.218 52.9756 120.363 49.8975C120.31 49.8095 120.257 49.7221 120.203 49.6353C123.918 50.3958 127.621 51.4186 131.444 51.021Z" fill="#E8E6FF"/>
<path d="M92.2511 34.769C94.6711 37.7573 98.016 39.6535 101.179 41.7459C100.987 41.7914 100.801 41.8376 100.613 41.8857C97.2179 42.7565 93.4906 44.3507 92.2511 47.868C91.0117 44.3507 87.2869 42.7565 83.8894 41.8857C83.7011 41.8376 83.5121 41.7914 83.3232 41.7459C86.4875 39.6535 89.8311 37.7573 92.2511 34.769Z" fill="#E8E6FF"/>
<path d="M53.0587 51.021C56.8815 51.4186 60.5838 50.3952 64.2996 49.6346C64.2464 49.7219 64.1926 49.8091 64.1395 49.8969C62.2851 52.975 60.6633 56.827 62.3133 60.2853C58.8582 58.6328 55.0111 60.2571 51.9365 62.1135L51.6745 62.2739C52.4342 58.5546 53.4565 54.8481 53.0587 51.021Z" fill="#E8E6FF"/>
<path d="M36.8253 90.2571C39.8096 87.8344 41.7044 84.4857 43.7938 81.3192C43.8393 81.5116 43.8854 81.6976 43.9335 81.8861C44.8033 85.2848 46.3957 89.0162 49.9098 90.2571C46.3957 91.4979 44.8033 95.2262 43.9335 98.628C43.8854 98.8166 43.8393 99.0051 43.7938 99.1949C41.7076 96.0271 39.8103 92.6798 36.8253 90.2571Z" fill="#E8E6FF"/>
<path d="M53.0587 129.493C53.4565 125.666 52.4341 121.96 51.6738 118.24C51.7609 118.293 51.8481 118.347 51.9358 118.399C55.0105 120.259 58.8582 121.88 62.3126 120.228C60.6626 123.687 62.2845 127.539 64.1388 130.617C64.192 130.704 64.2458 130.792 64.299 130.879C60.5838 130.118 56.8815 129.095 53.0587 129.493Z" fill="#E8E6FF"/>
<path d="M92.2511 145.744C89.8311 142.757 86.4862 140.86 83.3232 138.768C83.5121 138.723 83.7011 138.677 83.8894 138.628C87.2843 137.758 91.0117 136.163 92.2511 132.646C93.4906 136.163 97.2147 137.758 100.613 138.628C100.801 138.677 100.99 138.723 101.179 138.768C98.0115 140.86 94.6711 142.756 92.2511 145.744Z" fill="#E8E6FF"/>
<path d="M131.444 129.493C127.621 129.095 123.918 130.118 120.203 130.879C120.256 130.792 120.31 130.705 120.362 130.617C122.22 127.539 123.839 123.687 122.189 120.229C125.644 121.881 129.491 120.257 132.566 118.4C132.654 118.347 132.741 118.294 132.828 118.24C132.068 121.96 131.046 125.666 131.444 129.493Z" fill="#E8E6FF"/>
<path d="M140.708 99.1949C140.663 99.0026 140.617 98.8166 140.569 98.628C139.699 95.2294 138.106 91.4979 134.592 90.2571C138.106 89.0162 139.699 85.2873 140.569 81.8861C140.617 81.6976 140.663 81.5084 140.708 81.3192C142.798 84.487 144.692 87.8344 147.677 90.2571C144.693 92.6791 142.798 96.0271 140.708 99.1949Z" fill="#E8E6FF"/>
</svg>
