<svg width="360" height="538" fill="none" xmlns="http://www.w3.org/2000/svg"><path d="M183.15 401.344a25.36 25.36 0 019.664 3.902 25.445 25.445 0 017.288 7.465c4.437 6.959 1.04 16.165-7.176 19.114a32.433 32.433 0 01-24.943-1.076c-6.666-3-7.502-9.769-1.98-14.625 4.215-3.707 9.144-4.262 14.334-2.479a6.644 6.644 0 012.921 1.852 6.683 6.683 0 011.598 3.073 4.237 4.237 0 01-1.475 4.511 4.977 4.977 0 01-4.986.844c-1.745-.59-2.01-2.318-.489-3.648.98-.856 1.122-1.432.055-2.112-2.368-1.516-8.078.625-9.099 3.347-.821 2.203-.242 3.875 1.916 4.808a27.672 27.672 0 0017.968 1.73c8.079-2 10.21-9.459 4.501-15.558a23.797 23.797 0 00-14.618-7.396c-26.982-5.01-32.347 22.44-32.347 22.44-1.019 9.208-1.495 18.375 1.456 27.364a28.38 28.38 0 009.598 13.606c9.749 7.897 20.997 10.596 33.046 11.562 6.11.498 12.26-.026 18.199-1.551.947-.24 1.887-.308 1.189-1.734a1.516 1.516 0 01.432-2.027c2.477-1.343 2.219-3.603 2.183-5.853-.201-12.477-.405-24.955-.541-37.433-.02-1.875-.374-2.974-2.579-3-1.557-.016-3.374-.429-3.192-2.625.182-2.196 2.014-2.114 3.596-2.134 5.727-.074 7.434 1.493 7.942 7.213.342 3.848.342 3.917 4.301 3.931 5.66.223 11.329.021 16.959-.606 3.559-.525 5.055-3.722 3.039-6.875-.722-1.125-1.8-2.298-.698-3.464 1.455-1.54 3.471-.92 5.271-.546a2.52 2.52 0 012.103 2.836c-.05 4.842-.088 9.687-.007 14.528.067 4 .362 8 .458 12 .065 2.75-1.518 4.173-4.162 3.935-1.817-.162-2.903-.918-2.866-2.986.074-3.816-.037-7.637.028-11.455.028-1.676-.333-2.59-2.301-2.525-6.496.215-12.998.276-19.496.431-1.173.028-2.405-.092-2.394 1.825.061 10.983.03 21.965.03 33.556 2.003-1.271 3.431-2.28 4.954-3.116 1.489-.816 3.346-2.335 4.63-.226 1.284 2.109-.393 3.616-2.119 4.73a41.688 41.688 0 01-14.782 6.239c-15.374 2.908-30.486 2.41-44.976-4.178-11.251-5.116-20.718-12.422-23.454-25.112-.016 0-12.78-62.702 41.021-52.502zM74.704 480.273c-12.5 1.364-22.996-3.664-33.195-9.644-4.319-2.533-8.437-5.416-13.005-7.516-6.749-3.101-14.01-3.318-21.225-3.773-.834-.053-1.685.038-2.502-.097a2.29 2.29 0 01-1.936-2.087c-.188-1.148.616-1.696 1.458-2.118a6.728 6.728 0 011.609-.415c4.21-.91 4.214-.907 4.214-5.39 0-9.033-.051-18.066.012-27.098.03-4.09.354-8.179.417-12.269.047-3.118-2.078-4.29-4.798-2.68-1.37.813-2.63 1.984-4.227.561a4.612 4.612 0 01-1.295-4.868c.486-1.84 2.136-2.068 3.795-2.184 2.404-.17 4.797-.5 7.202-.684 4.385-.338 6.09 1.089 6.072 5.462-.032 8.653-.33 17.307-.331 25.961 0 6.605-.28 13.214.25 19.822.155 1.961.667 3.074 2.759 3.365 8.696 1.212 15.836 5.867 23.224 10.22 7.132 4.201 14.121 9.262 22.594 10.296 7.244.884 14.637 1.239 21.849-.716 4.263-1.157 5.757-3.577 4.447-6.782a4.332 4.332 0 00-1.95-2.277 14.796 14.796 0 00-9.197-1.45c-1.484.192-2.244.875-.76 2.337 1.684 1.663 1.246 3.039-1.014 3.672a5.767 5.767 0 01-6.81-2.963c-1.011-2.296-.034-4.644 2.629-6.315 5.33-3.347 15.533-2.475 20.212 1.728 5.248 4.714 4.081 12.296-2.418 15.347a25.33 25.33 0 01-9.067 2.513c-3.055.2-6.124.042-9.013.042zm196.056-61.168c5.196 0 10.395-.064 15.59.022 3.463.058 5.287 1.375 5.133 3.418-.165 2.219-2.266 3.166-5.812 2.466-6.627-1.305-13.308-.861-19.985-.777-2.216.027-3.103 1.05-3.159 3.233a43.105 43.105 0 01-.653 5.537c-.199 1.26.208 2.173 1.483 2.095 6.682-.413 13.543.985 19.984-1.938a2.876 2.876 0 013.397.265 4.566 4.566 0 01.681 4.25c-.291 1.334-1.371 1.521-2.573 1.632-4.906.388-9.827.529-14.747.421-1.761-.014-3.53.341-5.246.346-3.153.011-4.007 1.346-3.635 4.236.318 2.468-.997 5.65.532 7.284 1.564 1.666 4.75.485 7.22.531 4.174.079 8.351-.056 12.529-.081a14.202 14.202 0 006.749-1.289c1.316-.685 3.022-1.043 3.718.929.658 1.865.748 3.783-1.686 4.54-1.488.52-3.048.806-4.624.848-8.261-.035-16.523 0-24.785-.017-4.412-.01-5.571-1.265-5.675-5.555a153.837 153.837 0 011.258-23.936c.239-1.811-.156-2.939-2.251-3.244-1.73-.25-3.302-1.095-2.779-3.346.473-2.035 2.104-2.096 3.752-1.94 5.192.489 10.388.097 15.584.07zm46.731 37.435a10.33 10.33 0 01-1.658-.095c-2.884-.5-3.257-2.048-1.926-4.779 4.06-8.336 9.41-16 12.724-24.716a9.37 9.37 0 00.916-4.034c-.256-2.399.873-3.171 2.897-3.456a33.342 33.342 0 0111.058-.031c2.783.541 3.227 1.825 1.482 3.985-1.033 1.278-.508 2.063.208 3.168 5.094 7.867 10.338 15.645 14.795 23.908.79 1.466 1.753 3.052.144 4.563-1.526 1.433-4.176.827-5.412-1.36a56.845 56.845 0 01-3.391-7.01c-1.592-4.016-3.898-6.429-8.715-5.928a93.022 93.022 0 01-11.676-.019 3.503 3.503 0 00-3.554 2.064c-.997 1.885-2.272 3.615-3.318 5.475a4.295 4.295 0 00-.633 3.71c1.404 3.831.844 4.576-3.941 4.555zm17.914-21.125v-.019c1.475 0 2.949.009 4.424 0 1.019-.009 1.73-.289.967-1.459a502.533 502.533 0 00-5.342-8.07c-.596-.874-1.302-.976-1.907.074-1.29 2.234-2.658 4.426-3.864 6.704-1.021 1.922-.464 2.949 1.855 2.787 1.284-.092 2.58-.018 3.871-.018l-.004.001z" fill="#fff"/><path d="M75.665 437.751c.147 3.799-.193 7.625.499 11.407a4.978 4.978 0 003.09 4.275 2.147 2.147 0 011.613 2.324c-.139 1.25-1.03 1.704-2.022 2.018-2.61.827-5.263 1.46-7.695-.397a3.928 3.928 0 00-4.208-.315c-7.118 2.949-13.885 1.033-20.487-1.647-4.494-1.824-6.272-5.803-6.81-10.401a28.349 28.349 0 011.967-13.933c.686-1.733 1.275-3.308-1.525-3.616a1.856 1.856 0 01-1.496-1.809 2.11 2.11 0 011.333-2.237 14.111 14.111 0 017.28-1.425c2.158.174 3.221 2.41 2.424 5.011-.57 1.858-1.443 3.625-2.132 5.441a27.195 27.195 0 00-1.897 8.382c-.3 6.374 2.168 10.073 8.351 11.658 4.656 1.194 9.349 1.625 13.57-1.586a5.473 5.473 0 002.34-5.3 112.455 112.455 0 01-.325-13.946c.05-2.05.146-4-1.362-5.771-1.112-1.308-.149-2.558 1.1-3.162 1.67-.806 3.51-1.588 4.951.509a10.676 10.676 0 011.434 6.146c.043 2.79.007 5.583.007 8.374zm11.691 20.364a14.562 14.562 0 01-1.901-.324c-2.518-.686-2.77-1.946-1.6-4.334 4.201-8.572 9.683-16.481 13.082-25.463a6.845 6.845 0 00.683-3.522c-.42-2.4.973-3.281 2.883-3.521a40.987 40.987 0 0110.818-.112c2.95.415 3.472 1.795 1.663 4.238-1.008 1.363-.202 2.149.459 3.182 4.902 7.66 9.978 15.212 14.334 23.206.933 1.71 2.513 3.668.045 5.351-1.862 1.27-4.203.166-5.555-2.525-1.29-2.568-2.425-5.214-3.651-7.814-1.227-2.6-2.921-4.257-6.191-4.116-4.251.185-8.522-.125-12.785-.22a4.11 4.11 0 00-2.53.482 4.129 4.129 0 00-1.75 1.893c-.858 1.74-2.072 3.3-3.048 4.986a4.79 4.79 0 00-.786 3.978c1.26 3.84.581 4.732-4.17 4.635zm18.095-21.105v-.009c1.485 0 2.971-.015 4.456 0 1.444.018 1.62-.691.933-1.736a483.845 483.845 0 00-5.268-7.875c-.74-1.08-1.372-1.019-2.012.196-.951 1.803-2.047 3.529-3.053 5.303-.587 1.037-1.649 2.161-1.11 3.298.68 1.439 2.319.674 3.549.798.828.088 1.67.022 2.505.022v.003zm196.919-17.177c1.745-.148 3.498-.375 5.25-.417 1.294-.028 2.661.044 3.034 1.764a2.284 2.284 0 01-.253 1.889 2.284 2.284 0 01-1.592 1.042c-2.351.678-2.946 2.25-3.096 4.563-.444 6.875-.167 13.75-.249 20.625-.02 1.625.481 2.603 2.256 2.874 1.35.209 2.942.612 2.647 2.535-.274 1.787-1.68 2.375-3.3 2.299-3.331-.152-6.659-.386-9.986-.625a2.222 2.222 0 01-2.283-1.681 2.06 2.06 0 011.583-2.564c2.683-.93 3.1-2.867 3.089-5.452-.028-6.315.233-12.625.405-18.946.048-1.789-.149-3.339-2.244-3.91a1.554 1.554 0 01-1.195-2.125 2.3 2.3 0 012.04-1.968c1.288-.107 2.592-.025 3.889-.025l.005.122z" fill="#fff"/><path d="M3.84 528.403v-6.974h10.802v-2.623H3.84v-6.635h12.124v-2.684H.764v21.601h15.632v-2.685H3.84zm23.816 2.932c5.692 0 8.339-2.839 8.339-6.141 0-7.931-13.047-4.629-13.047-9.906 0-1.882 1.569-3.425 5.23-3.425 1.909 0 4.032.555 5.909 1.759l1.015-2.469c-1.784-1.234-4.4-1.913-6.923-1.913-5.662 0-8.247 2.839-8.247 6.172 0 8.023 13.047 4.69 13.047 9.967 0 1.882-1.6 3.333-5.323 3.333-2.77 0-5.508-1.05-7.109-2.5l-1.138 2.407c1.723 1.605 4.954 2.716 8.247 2.716zm21.234-21.848h-8.4v21.601h3.077v-6.542h5.324c5.6 0 8.985-2.839 8.985-7.53 0-4.69-3.385-7.529-8.985-7.529zm-.091 12.374h-5.232v-9.69H48.8c3.938 0 6 1.759 6 4.845s-2.062 4.845-6 4.845zm28.61 9.227h3.23l-9.785-21.601h-3.046l-9.755 21.601h3.17l2.37-5.401h11.446l2.37 5.401zm-12.74-7.869l4.647-10.585 4.646 10.585H64.67zm28.669 5.369c-4.862 0-8.462-3.518-8.462-8.301s3.6-8.301 8.462-8.301c2.37 0 4.4.803 6.062 2.562l2-1.944c-1.97-2.222-4.862-3.364-8.185-3.364-6.555 0-11.417 4.66-11.417 11.047 0 5.894 4.155 10.338 9.94 10.955l-.677 2.654h.83c1.231 0 1.754.494 1.754 1.203 0 .772-.553 1.235-1.723 1.235-.77 0-1.446-.155-2.092-.525l-.646 1.512c.769.463 1.661.679 2.738.679 2.308 0 3.816-1.08 3.816-2.808 0-1.358-.892-2.376-2.677-2.561l.338-1.296c3.262-.062 6.062-1.235 8.001-3.395l-2-1.944c-1.662 1.759-3.693 2.592-6.062 2.592zm21.725 2.747c6.554 0 11.416-4.691 11.416-11.048s-4.862-11.047-11.416-11.047c-6.616 0-11.478 4.721-11.478 11.047 0 6.326 4.862 11.048 11.478 11.048zm0-2.747c-4.831 0-8.401-3.518-8.401-8.301s3.57-8.301 8.401-8.301c4.769 0 8.339 3.518 8.339 8.301s-3.57 8.301-8.339 8.301zm28.66 2.5h3.047v-18.917h7.385v-2.684h-17.817v2.684h7.385v18.917zm16.86-2.685v-6.974h10.801v-2.623h-10.801v-6.635h12.124v-2.684h-15.201v21.601h15.632v-2.685h-12.555zm35.293 2.685l-5.108-7.252c3.015-1.08 4.739-3.487 4.739-6.82 0-4.69-3.385-7.529-8.986-7.529h-8.4v21.601h3.077v-6.573h5.323c.462 0 .924-.031 1.354-.062l4.647 6.635h3.354zm-9.447-9.196h-5.231v-9.721h5.231c3.939 0 6.001 1.759 6.001 4.845s-2.062 4.876-6.001 4.876zm30.143 9.196h3.231l-9.786-21.601h-3.046l-9.755 21.601h3.17l2.369-5.401h11.447l2.37 5.401zm-12.74-7.869l4.647-10.585 4.646 10.585h-9.293zm27.585-13.732h-8.401v21.601h3.077v-6.542h5.324c5.6 0 8.985-2.839 8.985-7.53 0-4.69-3.385-7.529-8.985-7.529zm-.093 12.374h-5.231v-9.69h5.231c3.939 0 6.001 1.759 6.001 4.845s-2.062 4.845-6.001 4.845zm21.23-16.509l2.831 2.376h2.677l-4.093-4.012h-2.831l-4.092 4.012h2.677l2.831-2.376zM248 528.403v-6.974h10.801v-2.623H248v-6.635h12.124v-2.684h-15.201v21.601h15.632v-2.685H248zm26.461 2.932c5.693 0 9.108-3.302 9.108-9.567v-12.281h-2.985v12.158c0 4.783-2.215 6.943-6.092 6.943-3.878 0-6.062-2.16-6.062-6.943v-12.158h-3.077v12.281c0 6.265 3.446 9.567 9.108 9.567zm19.304-.247h3.046v-18.917h7.385v-2.684h-17.817v2.684h7.386v18.917zm13.783 0h3.077v-21.601h-3.077v21.601zm19.157.247c3.354 0 6.247-1.173 8.216-3.395l-2-1.944c-1.662 1.759-3.693 2.592-6.062 2.592-4.862 0-8.462-3.518-8.462-8.301s3.6-8.301 8.462-8.301c2.369 0 4.4.803 6.062 2.562l2-1.944c-1.969-2.222-4.862-3.364-8.185-3.364-6.555 0-11.416 4.66-11.416 11.047 0 6.388 4.861 11.048 11.385 11.048zm21.879 0c6.554 0 11.416-4.691 11.416-11.048s-4.862-11.047-11.416-11.047c-6.616 0-11.478 4.721-11.478 11.047 0 6.326 4.862 11.048 11.478 11.048zm0-2.747c-4.831 0-8.401-3.518-8.401-8.301s3.57-8.301 8.401-8.301c4.769 0 8.339 3.518 8.339 8.301s-3.57 8.301-8.339 8.301z" fill="#E8E6FF"/><path d="M310.355 90.848c9.987 6.731 19.561 14.266 31.243 17.762-5.907 10.966-7.299 23.339-9.703 35.396-2.459 12.337-6.786 27.524-20.42 31.375-.017 0-.026.015-.042.02a.496.496 0 00-.125.06.461.461 0 00-.102.085.57.57 0 00-.243-.231 19.783 19.783 0 01-4.376-2.867c9.053-3.807 13.27-13.585 15.199-22.776 2.554-12.155 4.192-24.339 8.734-35.993a.715.715 0 00-.326-.806c-10.912-4.793-20.434-11.74-30.245-18.384-8.179-5.539-18.465-10.139-28.115-6.204a19.69 19.69 0 011.06-5.125.605.605 0 00.01-.35.527.527 0 00.31-.068c12.617-7.045 26.568.98 37.141 8.106zm-42.325 3.946c-1.885 4.5-7.604 9.02-12.097 4.509-4.155-4.166-.514-9.739 3.693-11.798 3.384-1.656 7.253-2 10.901-2.835-.776 3.387-1.15 6.908-2.497 10.124zm-83.14-39c1.834 4.515.981 11.76-5.378 11.76-5.872 0-7.23-6.516-5.709-10.955 1.224-3.573 3.72-6.562 5.711-9.74 1.844 2.953 4.066 5.71 5.38 8.942l-.004-.007zM98.6 87.17c4.487 1.889 8.995 7.619 4.495 12.131-4.155 4.166-9.711.515-11.764-3.705-1.652-3.392-1.995-7.272-2.827-10.93 3.376.78 6.891 1.154 10.1 2.507l-.004-.003zm-38.89 83.374c4.503-1.838 11.727-.983 11.727 5.394 0 5.889-6.498 7.25-10.924 5.724-3.564-1.228-6.543-3.729-9.712-5.726 2.946-1.847 5.695-4.075 8.92-5.393l-.01.001zm31.287 86.535c1.884-4.5 7.603-9.02 12.097-4.508 4.154 4.165.513 9.739-3.694 11.797-3.384 1.657-7.253 2-10.9 2.835.78-3.388 1.153-6.908 2.501-10.126l-.004.002zm83.139 38.999c-1.834-4.514-.981-11.758 5.378-11.758 5.873 0 7.23 6.516 5.709 10.954-1.224 3.574-3.719 6.562-5.711 9.74-1.839-2.953-4.061-5.71-5.375-8.943l-.001.007zm86.29-31.375c-4.487-1.889-8.993-7.624-4.494-12.131 4.154-4.166 9.711-.515 11.764 3.704 1.651 3.394 1.994 7.274 2.827 10.931-3.377-.78-6.887-1.154-10.095-2.506l-.002.002zm38.89-83.374c-4.502 1.84-11.727.985-11.727-5.392 0-5.889 6.498-7.25 10.924-5.725 3.564 1.227 6.543 3.73 9.713 5.727-2.942 1.845-5.693 4.073-8.914 5.39h.004zM211.354 23.126c12.025-2.411 24.362-3.806 35.298-9.73 3.49 11.715 11 21.316 17.712 31.331 7.105 10.604 15.11 24.597 8.077 37.24a.514.514 0 00-.068.312.595.595 0 00-.349.01 19.827 19.827 0 01-5.111 1.078c3.935-9.683-.654-20-6.18-28.21-6.625-9.839-13.553-19.387-18.333-30.33a.708.708 0 00-.803-.327c-11.621 4.555-23.772 6.197-35.892 8.757-9.165 1.936-18.916 6.164-22.712 15.25a19.896 19.896 0 01-2.863-4.389.586.586 0 00-.233-.25.525.525 0 00.167-.262c3.844-13.674 18.989-18.014 31.29-20.48zM94.667 44.727c6.713-10.015 14.226-19.616 17.713-31.331 10.935 5.924 23.273 7.319 35.297 9.73 12.302 2.466 27.445 6.805 31.287 20.477a.518.518 0 00.167.263.594.594 0 00-.234.25 19.852 19.852 0 01-2.858 4.388c-3.795-9.08-13.546-13.307-22.712-15.25-12.12-2.56-24.271-4.202-35.892-8.757a.705.705 0 00-.804.328c-4.779 10.942-11.706 20.49-18.331 30.33-5.523 8.202-10.11 18.517-6.187 28.194a19.566 19.566 0 01-5.11-1.062.594.594 0 00-.35-.01.523.523 0 00-.068-.312c-7.026-12.638.976-26.636 8.083-37.238zM17.434 108.61c11.682-3.5 21.257-11.031 31.242-17.762 10.574-7.125 24.528-15.154 37.136-8.1a.527.527 0 00.31.069.6.6 0 00.01.35 19.972 19.972 0 011.075 5.125c-9.655-3.947-19.943.656-28.13 6.197-9.81 6.644-19.333 13.591-30.244 18.384a.71.71 0 00-.327.806c4.542 11.654 6.18 23.838 8.733 35.993 1.93 9.191 6.146 18.969 15.207 22.776a19.83 19.83 0 01-4.377 2.867.585.585 0 00-.249.233.513.513 0 00-.261-.167c-13.633-3.856-17.96-19.043-20.42-31.375-2.407-12.057-3.798-24.43-9.705-35.396zm11.072 129.578a.713.713 0 00.327.805c10.911 4.792 20.433 11.741 30.244 18.385 8.18 5.538 18.465 10.138 28.117 6.203a19.771 19.771 0 01-1.061 5.125.597.597 0 00-.01.349.527.527 0 00-.31.07c-12.606 7.051-26.564-.975-37.137-8.1-9.986-6.731-19.56-14.266-31.242-17.762 5.907-10.968 7.298-23.339 9.702-35.398 2.46-12.336 6.786-27.523 20.42-31.374a.514.514 0 00.262-.169.58.58 0 00.249.234 19.828 19.828 0 014.376 2.867c-9.053 3.806-13.27 13.585-15.206 22.776l-8.73 35.989zm119.167 90.563c-12.024 2.411-24.362 3.806-35.297 9.73-3.49-11.715-11-21.318-17.712-31.331-7.105-10.604-15.111-24.598-8.077-37.241a.534.534 0 00.068-.312.586.586 0 00.35-.01 19.815 19.815 0 015.11-1.077c-3.935 9.682.654 20 6.18 28.208 6.625 9.84 13.553 19.389 18.331 30.33a.71.71 0 00.804.329c11.621-4.555 23.773-6.199 35.892-8.759 9.166-1.935 18.917-6.163 22.712-15.242a19.84 19.84 0 012.858 4.389.588.588 0 00.234.25.513.513 0 00-.167.263c-3.836 13.662-18.98 18.001-31.282 20.463l-.004.01zM264.36 307.15c-6.712 10.013-14.226 19.616-17.712 31.331-10.935-5.924-23.273-7.319-35.298-9.73-12.301-2.467-27.444-6.805-31.286-20.478a.521.521 0 00-.167-.263.586.586 0 00.233-.25 19.84 19.84 0 012.858-4.389c3.796 9.079 13.547 13.307 22.712 15.242 12.121 2.56 24.27 4.204 35.892 8.759a.706.706 0 00.803-.329c4.78-10.941 11.708-20.49 18.333-30.33 5.523-8.201 10.11-18.516 6.186-28.194a19.64 19.64 0 015.111 1.063.585.585 0 00.349.01.53.53 0 00.068.312c7.032 12.641-.972 26.637-8.078 37.241l-.004.005zm77.234-63.884c-11.682 3.5-21.257 11.032-31.243 17.763-10.574 7.125-24.528 15.152-37.136 8.1a.526.526 0 00-.31-.07.602.602 0 00-.01-.349 19.97 19.97 0 01-1.075-5.125c9.655 3.946 19.944-.656 28.131-6.197 9.811-6.644 19.332-13.593 30.244-18.385a.711.711 0 00.327-.805c-4.543-11.654-6.182-23.84-8.735-35.994-1.929-9.191-6.145-18.97-15.199-22.776a19.841 19.841 0 014.376-2.867.192.192 0 01.109-.224.188.188 0 01.235.079.496.496 0 00.125.06c.015 0 .024.016.04.02l.055.017c13.586 3.884 17.907 19.043 20.362 31.361 2.41 12.049 3.799 24.42 9.708 35.387l-.004.005z" fill="#fff"/><path d="M303.572 51.53c-1.258 12.134 1.978 23.885 4.383 35.68l-.828-.507c-9.738-5.886-21.913-11.035-32.849-5.797 5.224-10.968.089-23.177-5.782-32.942-.167-.277-.337-.554-.499-.83 11.756 2.412 23.474 5.657 35.575 4.395zM179.516 0c7.659 9.474 18.244 15.487 28.258 22.125-.598.145-1.195.291-1.791.444-10.756 2.76-22.545 7.814-26.467 18.97-3.923-11.154-15.706-16.21-26.468-18.97-.596-.153-1.193-.3-1.791-.444C161.272 15.487 171.856 9.475 179.516 0zM55.46 51.53c12.1 1.26 23.82-1.984 35.58-4.397-.168.276-.338.554-.498.831-5.871 9.765-11.005 21.974-5.783 32.942-10.936-5.24-23.11-.09-32.848 5.797-.277.167-.553.339-.829.507 2.4-11.794 5.636-23.546 4.378-35.68zM4.075 175.936c9.449-7.681 15.444-18.296 22.063-28.339.144.6.29 1.199.442 1.797 2.754 10.785 7.795 22.608 18.917 26.542-11.122 3.934-16.163 15.75-18.917 26.542-.152.598-.297 1.196-.442 1.796-6.619-10.043-12.614-20.657-22.063-28.338zM55.46 300.341c1.258-12.134-1.978-23.886-4.384-35.68.276.169.552.339.829.507 9.737 5.887 21.913 11.036 32.848 5.798-5.224 10.968-.088 23.176 5.782 32.941.167.278.337.555.499.831-11.756-2.412-23.474-5.657-35.574-4.397zm124.056 51.531c-7.66-9.475-18.245-15.488-28.259-22.125.598-.144 1.195-.29 1.791-.444 10.756-2.76 22.545-7.815 26.468-18.968 3.922 11.153 15.705 16.208 26.467 18.968.596.154 1.193.3 1.791.444-10.015 6.637-20.599 12.65-28.258 22.125zm124.056-51.531c-12.101-1.26-23.82 1.985-35.581 4.397.168-.276.338-.553.499-.831 5.871-9.765 11.005-21.975 5.782-32.941 10.937 5.238 23.111.089 32.848-5.798.277-.168.554-.338.829-.507-2.399 11.794-5.635 23.546-4.377 35.68zm29.325-96.067c-.143-.6-.29-1.198-.441-1.796-2.753-10.786-7.794-22.608-18.916-26.542 11.122-3.934 16.163-15.757 18.916-26.542.152-.598.299-1.197.441-1.797 6.615 10.043 12.611 20.658 22.063 28.339-9.452 7.681-15.448 18.295-22.063 28.338z" fill="#E8E6FF"/><path d="M259.953 123.626c6.139 4.138 12.024 8.77 19.207 10.919-3.631 6.742-4.488 14.349-5.965 21.761-1.513 7.585-4.172 16.921-12.554 19.291-.01 0-.016.01-.026.014a.254.254 0 00-.074.036.26.26 0 00-.062.053.357.357 0 00-.15-.143 12.255 12.255 0 01-2.691-1.762c5.567-2.34 8.158-8.352 9.349-14 1.569-7.473 2.576-14.963 5.369-22.125a.434.434 0 00-.202-.5c-6.707-2.946-12.56-7.218-18.592-11.303-5.028-3.405-11.353-6.233-17.285-3.813.077-1.075.295-2.134.651-3.15a.351.351 0 00.006-.215.322.322 0 00.192-.043c7.746-4.335 16.326.597 22.827 4.98zm-26.022 2.426c-1.157 2.764-4.67 5.545-7.436 2.772-2.554-2.561-.315-5.988 2.271-7.25a30.199 30.199 0 016.701-1.743 37.367 37.367 0 01-1.536 6.221zm-51.105-23.972c1.128 2.775.605 7.229-3.305 7.229-3.615 0-4.444-4.006-3.509-6.734a30.334 30.334 0 013.51-5.989 37.068 37.068 0 013.299 5.494h.005zm-53.053 19.288c2.756 1.161 5.529 4.683 2.763 7.457-2.554 2.561-5.969.316-7.229-2.278a30.394 30.394 0 01-1.738-6.719c2.108.333 4.184.849 6.204 1.54zm-23.905 51.249c2.767-1.125 7.209-.605 7.209 3.316 0 3.625-3.989 4.457-6.715 3.519a30.209 30.209 0 01-5.972-3.52 37.184 37.184 0 015.478-3.315zm19.232 53.2c1.158-2.764 4.67-5.545 7.436-2.772 2.554 2.562.316 5.987-2.271 7.25a30.199 30.199 0 01-6.701 1.743 37.567 37.567 0 011.536-6.219v-.002zm51.105 23.972c-1.128-2.775-.604-7.23 3.306-7.23 3.615 0 4.443 4.006 3.509 6.735a30.394 30.394 0 01-3.511 5.989 37.21 37.21 0 01-3.299-5.492l-.005-.002zm53.049-19.286c-2.756-1.161-5.53-4.684-2.764-7.458 2.554-2.561 5.969-.316 7.23 2.278a30.456 30.456 0 011.737 6.72 37.173 37.173 0 01-6.199-1.538l-.004-.002zm23.904-51.25c-2.767 1.125-7.208.605-7.208-3.315 0-3.625 3.989-4.456 6.715-3.518a30.201 30.201 0 015.971 3.52 37.145 37.145 0 01-5.473 3.311l-.005.002zm3.241-73.874c0 .114.01.229.016.342l-.025-.343.009.001zm-6.523-6.541v.007l-.341-.023.341.016zm-50.787-16.845c7.393-1.481 14.978-2.34 21.7-5.981 2.144 7.202 6.763 13.105 10.889 19.26 4.369 6.519 9.29 15.126 4.966 22.896a.325.325 0 00-.043.191.372.372 0 00-.214.006 12.17 12.17 0 01-3.145.663c2.42-5.953-.402-12.298-3.799-17.343-4.074-6.048-8.333-11.919-11.271-18.646a.434.434 0 00-.498-.201c-7.145 2.8-14.615 3.81-22.063 5.384-5.635 1.19-11.629 3.79-13.96 9.375a12.152 12.152 0 01-1.758-2.698.35.35 0 00-.143-.151.32.32 0 00.103-.162c2.364-8.41 11.674-11.078 19.236-12.593zm-54.595-4.094l-.319-.103v-.007l.319.11zm-17.135 17.374c4.125-6.156 8.745-12.059 10.889-19.261 6.722 3.64 14.307 4.5 21.699 5.98 7.563 1.517 16.873 4.185 19.236 12.59a.335.335 0 00.103.162.362.362 0 00-.143.151 12.18 12.18 0 01-1.757 2.698c-2.334-5.582-8.328-8.18-13.961-9.375-7.45-1.574-14.92-2.584-22.062-5.384a.437.437 0 00-.499.201c-2.938 6.728-7.197 12.598-11.271 18.646-3.395 5.043-6.216 11.385-3.803 17.334a11.98 11.98 0 01-3.141-.654.371.371 0 00-.214-.006.328.328 0 00-.042-.191c-4.328-7.769.592-16.374 4.961-22.892h.005zm-47.482 39.273c7.182-2.149 13.068-6.781 19.208-10.919 6.499-4.381 15.082-9.316 22.829-4.979a.33.33 0 00.192.042.358.358 0 000 .215c.358 1.017.58 2.078.661 3.154-5.936-2.426-12.263.404-17.294 3.81-6.032 4.085-11.885 8.356-18.592 11.302a.436.436 0 00-.202.5c2.792 7.165 3.8 14.656 5.37 22.125 1.186 5.651 3.778 11.662 9.348 14a12.143 12.143 0 01-2.69 1.762.368.368 0 00-.15.144.327.327 0 00-.161-.104c-8.382-2.375-11.042-11.706-12.555-19.291-1.482-7.413-2.338-15.02-5.97-21.762l.006.001zm19.208 93.701c-6.14-4.138-12.026-8.77-19.208-10.92 3.63-6.742 4.487-14.348 5.964-21.761 1.513-7.584 4.172-16.92 12.555-19.291a.317.317 0 00.16-.103.362.362 0 00.151.144 12.14 12.14 0 012.69 1.761c-5.565 2.341-8.157 8.352-9.348 14-1.57 7.472-2.577 14.964-5.37 22.125a.439.439 0 00.202.5c6.707 2.946 12.56 7.217 18.592 11.302 5.028 3.405 11.353 6.233 17.285 3.814a12.116 12.116 0 01-.652 3.15.358.358 0 000 .215.315.315 0 00-.192.042c-7.754 4.335-16.335-.598-22.834-4.983l.005.005zm60.852 41.632c-7.392 1.482-14.977 2.34-21.699 5.982-2.144-7.202-6.764-13.105-10.889-19.262-4.363-6.519-9.29-15.125-4.966-22.895a.328.328 0 00.042-.191c.07.02.145.018.214-.007a12.226 12.226 0 013.145-.661c-2.419 5.953.403 12.298 3.799 17.341 4.074 6.05 8.333 11.92 11.271 18.646a.438.438 0 00.499.203c7.144-2.801 14.614-3.811 22.062-5.385 5.635-1.19 11.63-3.789 13.961-9.375a12.202 12.202 0 011.757 2.699.365.365 0 00.143.151.319.319 0 00-.103.161c-2.358 8.409-11.668 11.08-19.236 12.593zm71.736-13.28c-4.126 6.157-8.745 12.06-10.889 19.262-6.722-3.642-14.307-4.5-21.7-5.982-7.562-1.517-16.872-4.184-19.235-12.589a.327.327 0 00-.104-.161.365.365 0 00.143-.151 12.219 12.219 0 011.758-2.699c2.333 5.582 8.328 8.181 13.96 9.375 7.45 1.574 14.921 2.583 22.063 5.385a.439.439 0 00.498-.203c2.938-6.726 7.198-12.596 11.271-18.646 3.395-5.041 6.215-11.384 3.803-17.332a12.05 12.05 0 013.141.652.34.34 0 00.214.006.33.33 0 00.043.192c4.328 7.768-.592 16.373-4.961 22.891h-.005zm47.481-39.274c-7.182 2.15-13.067 6.783-19.206 10.92-6.501 4.382-15.083 9.316-22.831 4.98a.313.313 0 00-.192-.042.344.344 0 00-.006-.215 12.281 12.281 0 01-.659-3.154c5.936 2.426 12.263-.404 17.293-3.81 6.032-4.085 11.885-8.356 18.593-11.302a.436.436 0 00.202-.5c-2.794-7.165-3.801-14.656-5.37-22.125-1.187-5.65-3.778-11.661-9.349-14a12.18 12.18 0 012.691-1.761.363.363 0 00.15-.143.26.26 0 00.062.053.373.373 0 00.075.037c.01 0 .015.009.025.012l.034.011c8.351 2.387 11.007 11.706 12.518 19.28 1.488 7.412 2.343 15.018 5.976 21.759h-.006z" fill="#fff"/><path d="M255.782 99.454c-.774 7.46 1.215 14.685 2.695 21.936l-.51-.312c-5.983-3.625-13.47-6.784-20.193-3.564 3.211-6.743.055-14.25-3.555-20.25a30.864 30.864 0 00-.31-.511c7.23 1.482 14.434 3.476 21.873 2.701zm-76.266-31.68c4.709 5.825 11.218 9.522 17.373 13.6a65.73 65.73 0 00-1.102.273c-6.606 1.697-13.859 4.805-16.271 11.66-2.412-6.855-9.66-9.963-16.272-11.66a80.536 80.536 0 00-1.102-.273c6.158-4.078 12.665-7.775 17.374-13.6zm-76.267 31.68c7.439.775 14.644-1.22 21.875-2.702l-.312.51c-3.609 6.001-6.765 13.509-3.554 20.251-6.723-3.222-14.209-.055-20.192 3.563l-.51.313c1.478-7.25 3.467-14.475 2.693-21.935zM71.66 175.936c5.807-4.723 9.494-11.25 13.56-17.422.089.374.179.737.272 1.105 1.693 6.624 4.792 13.898 11.63 16.317-6.838 2.419-9.937 9.686-11.63 16.317a98.96 98.96 0 00-.272 1.105c-4.06-6.175-7.751-12.7-13.56-17.422zm31.589 76.482c.774-7.46-1.215-14.685-2.695-21.936l.51.311c5.983 3.625 13.471 6.785 20.193 3.565-3.211 6.742-.055 14.25 3.554 20.25l.311.511c-7.229-1.483-14.434-3.478-21.873-2.701zm76.267 31.678c-4.709-5.824-11.218-9.521-17.374-13.598.368-.089.736-.179 1.102-.273 6.607-1.698 13.86-4.805 16.272-11.662 2.412 6.857 9.659 9.964 16.271 11.662.367.094.734.184 1.102.273-6.164 4.077-12.664 7.773-17.373 13.598zm76.266-31.678c-7.439-.777-14.643 1.218-21.874 2.702.103-.17.208-.34.31-.511 3.615-6 6.766-13.509 3.555-20.25 6.724 3.22 14.21.055 20.193-3.565.171-.102.34-.207.51-.311-1.479 7.25-3.468 14.475-2.694 21.935zm18.029-59.06a66.124 66.124 0 00-.272-1.105c-1.692-6.625-4.791-13.898-11.629-16.317 6.838-2.419 9.937-9.688 11.629-16.317.094-.368.183-.737.272-1.105 4.067 6.174 7.752 12.699 13.56 17.422-5.807 4.721-9.494 11.247-13.56 17.422z" fill="#E8E6FF"/></svg>