<svg width="416" height="131" fill="none" xmlns="http://www.w3.org/2000/svg"><path d="M286.143 21.962a18.748 18.748 0 0112.517 8.373c3.276 5.126.768 11.907-5.299 14.079a23.992 23.992 0 01-18.418-.793c-4.923-2.21-5.541-7.195-1.463-10.773 3.113-2.73 6.753-3.138 10.585-1.826a4.907 4.907 0 013.337 3.629 3.116 3.116 0 01-1.089 3.323 3.683 3.683 0 01-3.682.621c-1.288-.434-1.484-1.707-.36-2.687.724-.63.829-1.056.041-1.556-1.749-1.116-5.966.46-6.719 2.466-.607 1.623-.179 2.855 1.414 3.541a20.487 20.487 0 0013.268 1.275c5.966-1.473 7.539-6.968 3.324-11.46a17.593 17.593 0 00-10.794-5.45c-19.924-3.689-23.886 16.531-23.886 16.531-.753 6.783-1.104 13.536 1.075 20.157a20.9 20.9 0 007.087 10.022c7.199 5.817 15.505 7.806 24.403 8.517a40.87 40.87 0 0013.438-1.142c.7-.177 1.394-.228.877-1.277a1.115 1.115 0 01.321-1.494c1.828-.989 1.638-2.653 1.611-4.31-.148-9.192-.299-18.383-.399-27.575-.015-1.381-.276-2.19-1.905-2.21-1.149-.012-2.492-.316-2.357-1.933.135-1.617 1.488-1.557 2.655-1.572 4.234-.054 5.49 1.1 5.866 5.313.252 2.834.252 2.885 3.175 2.896 4.18.163 8.366.014 12.523-.447 2.628-.387 3.733-2.741 2.244-5.064-.533-.829-1.329-1.692-.515-2.55 1.074-1.135 2.562-.678 3.892-.403a1.856 1.856 0 011.553 2.09c-.037 3.566-.065 7.135-.005 10.701.049 2.947.267 5.893.337 8.84.049 2.025-1.12 3.073-3.072 2.898-1.342-.12-2.144-.678-2.117-2.2.055-2.812-.027-5.626.021-8.438.02-1.234-.246-1.907-1.699-1.86-4.797.159-9.598.203-14.396.318-.866.02-1.777-.069-1.768 1.345.045 8.088.021 16.178.021 24.717 1.48-.937 2.535-1.68 3.659-2.295 1.099-.601 2.471-1.721 3.419-.168.948 1.554-.29 2.665-1.565 3.485a30.803 30.803 0 01-10.915 4.595c-11.353 2.144-22.512 1.776-33.212-3.077-8.308-3.768-15.298-9.15-17.319-18.497-.008-.001-9.438-46.189 30.291-38.675zm-80.08 58.141c-9.231 1.004-16.981-2.7-24.512-7.104-3.189-1.867-6.23-3.99-9.604-5.537-4.983-2.284-10.344-2.444-15.673-2.78a18.342 18.342 0 01-1.847-.071 1.69 1.69 0 01-1.429-1.537c-.139-.845.454-1.25 1.075-1.56.382-.15.781-.254 1.189-.306 3.109-.67 3.112-.669 3.112-3.97 0-6.654-.039-13.308.009-19.961.022-3.014.261-6.025.307-9.038.035-2.297-1.534-3.16-3.542-1.974-1.013.599-1.942 1.462-3.122.414a3.394 3.394 0 01-.956-3.591c.359-1.355 1.577-1.522 2.802-1.608 1.775-.125 3.543-.368 5.318-.503 3.238-.25 4.497.802 4.484 4.022-.024 6.375-.243 12.748-.244 19.123 0 4.866-.207 9.734.184 14.602.115 1.445.492 2.264 2.038 2.479 6.421.893 11.689 4.321 17.148 7.527 5.268 3.096 10.428 6.823 16.684 7.584 5.349.652 10.809.914 16.135-.526 3.148-.852 4.251-2.635 3.284-4.996a3.198 3.198 0 00-1.441-1.678 10.949 10.949 0 00-6.791-1.067c-1.096.142-1.656.645-.561 1.722 1.243 1.224.92 2.237-.748 2.704a4.267 4.267 0 01-5.03-2.183c-.746-1.69-.024-3.42 1.942-4.652 3.935-2.466 11.47-1.823 14.925 1.274 3.874 3.47 3.014 9.057-1.785 11.305a18.733 18.733 0 01-6.696 1.85c-2.253.152-4.522.036-6.655.036zm144.773-45.058c3.837 0 7.676-.047 11.512.017 2.557.042 3.904 1.012 3.791 2.517-.124 1.633-1.675 2.331-4.292 1.816-4.894-.962-9.828-.634-14.757-.572-1.637.02-2.292.773-2.334 2.382a31.395 31.395 0 01-.483 4.078c-.145.927.154 1.601 1.096 1.543 4.935-.304 10 .726 14.758-1.428a2.124 2.124 0 012.508.196 3.361 3.361 0 01.502 3.13c-.214.983-1.012 1.121-1.9 1.203-3.622.286-7.256.39-10.889.31-1.301-.01-2.607.25-3.874.255-2.328.007-2.958.99-2.684 3.12.235 1.818-.737 4.162.393 5.365 1.155 1.228 3.508.358 5.331.392 3.082.058 6.167-.042 9.252-.06 1.714.095 3.425-.23 4.983-.95.972-.504 2.232-.767 2.746.684.486 1.374.552 2.787-1.244 3.345a11.27 11.27 0 01-3.415.624c-6.101-.026-12.201 0-18.302-.012-3.258-.008-4.114-.932-4.191-4.093-.15-5.892.16-11.787.929-17.63.177-1.335-.115-2.165-1.662-2.394-1.279-.184-2.439-.808-2.052-2.465.349-1.5 1.554-1.545 2.771-1.43 3.833.365 7.67.076 11.507.057zm34.51 27.57a7.43 7.43 0 01-1.225-.07c-2.13-.368-2.404-1.507-1.422-3.519 2.999-6.141 6.949-11.786 9.397-18.206a6.897 6.897 0 00.676-2.971c-.189-1.767.645-2.336 2.139-2.546a24.65 24.65 0 018.165-.023c2.056.398 2.383 1.343 1.095 2.935-.762.941-.375 1.52.153 2.334 3.762 5.795 7.635 11.524 10.926 17.61.584 1.08 1.294 2.248.106 3.361-1.127 1.057-3.084.61-3.997-1.001a41.88 41.88 0 01-2.503-5.163c-1.176-2.958-2.878-4.737-6.436-4.367a68.9 68.9 0 01-8.622-.014 2.582 2.582 0 00-2.624 1.52c-.736 1.389-1.678 2.663-2.45 4.033a3.152 3.152 0 00-.467 2.733c1.033 2.825.62 3.375-2.911 3.354zm13.229-15.56v-.014c1.088 0 2.177.007 3.266 0 .753-.005 1.277-.211.714-1.073a358.96 358.96 0 00-3.944-5.945c-.44-.644-.961-.719-1.409.055-.952 1.645-1.962 3.26-2.853 4.938-.754 1.416-.342 2.172 1.37 2.053.946-.065 1.902-.015 2.856-.015z" fill="#190A4E"/><path d="M206.775 48.779c.108 2.8-.142 5.617.368 8.403a3.682 3.682 0 002.282 3.15 1.582 1.582 0 011.191 1.712c-.102.92-.76 1.254-1.493 1.486-1.926.608-3.886 1.074-5.682-.292a2.903 2.903 0 00-3.107-.233c-5.256 2.173-10.253.761-15.128-1.213-3.319-1.343-4.632-4.274-5.03-7.662a20.835 20.835 0 011.453-10.262c.507-1.277.942-2.438-1.126-2.664a1.375 1.375 0 01-1.104-1.333 1.558 1.558 0 01.984-1.649 10.449 10.449 0 015.376-1.048c1.593.128 2.379 1.775 1.789 3.691-.42 1.368-1.065 2.666-1.574 4.008a19.985 19.985 0 00-1.4 6.17c-.222 4.695 1.6 7.42 6.166 8.587 3.438.88 6.904 1.197 10.02-1.168a4.028 4.028 0 001.728-3.904 82.485 82.485 0 01-.239-10.273c.035-1.51.106-2.947-1.006-4.252-.821-.962-.11-1.883.812-2.328 1.232-.594 2.592-1.171 3.656.374a7.855 7.855 0 011.059 4.528c.029 2.06.005 4.116.005 6.172zm8.63 14.999a10.693 10.693 0 01-1.404-.238c-1.859-.506-2.045-1.434-1.18-3.193 3.101-6.314 7.149-12.14 9.664-18.756.396-.805.57-1.7.504-2.595-.311-1.767.718-2.416 2.129-2.593a30.38 30.38 0 017.989-.084c2.178.306 2.563 1.323 1.228 3.123-.745 1.004-.149 1.583.338 2.344 3.62 5.641 7.368 11.206 10.585 17.093.689 1.26 1.856 2.702.033 3.943-1.375.935-3.103.122-4.102-1.86-.953-1.892-1.79-3.84-2.697-5.757-.906-1.916-2.155-3.13-4.571-3.031-3.138.135-6.293-.092-9.44-.163a3.044 3.044 0 00-3.161 1.75c-.633 1.281-1.53 2.43-2.251 3.671a3.526 3.526 0 00-.58 2.931c.926 2.831.425 3.488-3.084 3.415zm13.362-15.547v-.006c1.097 0 2.194-.01 3.29 0 1.067.013 1.197-.51.69-1.28a300.823 300.823 0 00-3.892-5.8c-.545-.796-1.012-.75-1.484.144-.703 1.328-1.513 2.599-2.254 3.906-.435.764-1.218 1.592-.821 2.43.503 1.06 1.713.497 2.622.588.61.068 1.232.018 1.849.018zM374.178 35.58c1.288-.109 2.582-.276 3.877-.306.955-.021 1.965.032 2.24 1.3a1.684 1.684 0 01-1.362 2.158c-1.737.5-2.176 1.657-2.287 3.361-.328 5.064-.124 10.129-.184 15.193-.015 1.197.355 1.918 1.665 2.118.998.154 2.173.45 1.956 1.867-.202 1.316-1.241 1.75-2.437 1.694-2.46-.112-4.917-.284-7.374-.46a1.64 1.64 0 01-1.686-1.24 1.515 1.515 0 011.169-1.889c1.981-.683 2.289-2.11 2.281-4.015-.02-4.652.172-9.3.299-13.956.036-1.317-.11-2.459-1.657-2.88a1.141 1.141 0 01-.965-1.06 1.15 1.15 0 01.083-.505 1.696 1.696 0 011.507-1.45c.951-.078 1.914-.018 2.871-.018l.004.089z" fill="#190A4E"/><path d="M155.476 108.813v-5.048h7.838v-1.899h-7.838v-4.802h8.798V95.12h-11.031v15.637h11.343v-1.944h-9.11zm17.281 2.122c4.131 0 6.051-2.055 6.051-4.445 0-5.741-9.467-3.35-9.467-7.17 0-1.363 1.138-2.48 3.796-2.48a8.07 8.07 0 014.287 1.274l.737-1.787c-1.295-.894-3.193-1.385-5.024-1.385-4.109 0-5.985 2.055-5.985 4.467 0 5.808 9.468 3.396 9.468 7.215 0 1.363-1.161 2.413-3.863 2.413-2.01 0-3.997-.76-5.158-1.81l-.826 1.743c1.25 1.161 3.595 1.965 5.984 1.965zm15.409-15.815h-6.096v15.637h2.233v-4.736h3.863c4.064 0 6.52-2.055 6.52-5.45s-2.456-5.45-6.52-5.45zm-.067 8.958h-3.796v-7.014h3.796c2.859 0 4.355 1.273 4.355 3.507s-1.496 3.507-4.355 3.507zm20.761 6.679h2.345l-7.101-15.637h-2.211l-7.078 15.637h2.3l1.719-3.909h8.307l1.719 3.909zm-9.244-5.696l3.372-7.662 3.371 7.662h-6.743zm20.803 3.886c-3.528 0-6.14-2.546-6.14-6.008 0-3.463 2.612-6.01 6.14-6.01 1.719 0 3.193.581 4.399 1.855l1.451-1.408c-1.429-1.608-3.528-2.434-5.939-2.434-4.756 0-8.284 3.373-8.284 7.997 0 4.266 3.014 7.483 7.212 7.929l-.491 1.921h.603c.893 0 1.272.358 1.272.872 0 .558-.402.893-1.25.893-.558 0-1.05-.112-1.518-.38l-.469 1.095c.558.335 1.205.491 1.987.491 1.675 0 2.769-.782 2.769-2.032 0-.983-.648-1.72-1.943-1.854l.246-.939c2.367-.044 4.399-.893 5.805-2.457l-1.451-1.407c-1.206 1.273-2.68 1.876-4.399 1.876zm15.765 1.988c4.756 0 8.284-3.395 8.284-7.996 0-4.602-3.528-7.997-8.284-7.997-4.801 0-8.329 3.417-8.329 7.997 0 4.579 3.528 7.996 8.329 7.996zm0-1.988c-3.506 0-6.096-2.546-6.096-6.008 0-3.463 2.59-6.01 6.096-6.01 3.461 0 6.051 2.547 6.051 6.01 0 3.462-2.59 6.008-6.051 6.008zm20.797 1.81h2.211V97.064h5.359V95.12h-12.929v1.944h5.359v13.693zm12.235-1.944v-5.048h7.837v-1.899h-7.837v-4.802h8.797V95.12h-11.03v15.637h11.343v-1.944h-9.11zm25.61 1.944l-3.707-5.25c2.188-.781 3.439-2.524 3.439-4.936 0-3.395-2.457-5.45-6.52-5.45h-6.096v15.636h2.233v-4.758h3.863c.334 0 .669-.023.982-.045l3.372 4.803h2.434zm-6.855-6.657h-3.796v-7.036h3.796c2.858 0 4.354 1.273 4.354 3.507s-1.496 3.529-4.354 3.529zm21.872 6.657h2.345l-7.101-15.637h-2.21l-7.079 15.637h2.3l1.72-3.909h8.306l1.719 3.909zm-9.244-5.696l3.372-7.662 3.372 7.662h-6.744zm20.017-9.941h-6.096v15.637h2.233v-4.736h3.863c4.064 0 6.52-2.055 6.52-5.45s-2.456-5.45-6.52-5.45zm-.067 8.958h-3.796v-7.014h3.796c2.858 0 4.354 1.273 4.354 3.507s-1.496 3.507-4.354 3.507zm15.405-11.951l2.054 1.72h1.943l-2.97-2.904h-2.054l-2.97 2.904h1.943l2.054-1.72zm-3.305 16.686v-5.048h7.838v-1.899h-7.838v-4.802h8.798V95.12h-11.031v15.637h11.344v-1.944h-9.111zm19.202 2.122c4.131 0 6.609-2.39 6.609-6.924v-8.89h-2.166v8.8c0 3.463-1.608 5.026-4.421 5.026-2.814 0-4.399-1.563-4.399-5.026v-8.8h-2.233v8.89c0 4.534 2.501 6.924 6.61 6.924zm14.007-.178h2.211V97.064h5.359V95.12h-12.929v1.944h5.359v13.693zm10.002 0h2.233V95.12h-2.233v15.637zm13.901.178c2.434 0 4.533-.848 5.962-2.457l-1.451-1.407c-1.206 1.273-2.68 1.876-4.399 1.876-3.528 0-6.141-2.546-6.141-6.008 0-3.463 2.613-6.01 6.141-6.01 1.719 0 3.193.581 4.399 1.855l1.451-1.408c-1.429-1.608-3.528-2.434-5.939-2.434-4.756 0-8.284 3.373-8.284 7.997 0 4.623 3.528 7.996 8.261 7.996zm15.877 0c4.756 0 8.284-3.395 8.284-7.996 0-4.602-3.528-7.997-8.284-7.997-4.801 0-8.329 3.417-8.329 7.997 0 4.579 3.528 7.996 8.329 7.996zm0-1.988c-3.506 0-6.096-2.546-6.096-6.008 0-3.463 2.59-6.01 6.096-6.01 3.461 0 6.051 2.547 6.051 6.01 0 3.462-2.59 6.008-6.051 6.008zM114.306 33.822c3.727 2.506 7.301 5.311 11.66 6.612-2.204 4.084-2.723 8.69-3.621 13.179-.918 4.593-2.532 10.247-7.621 11.68-.006 0-.01.006-.015.008a.195.195 0 00-.085.054.214.214 0 00-.09-.086 7.404 7.404 0 01-1.634-1.067c3.379-1.417 4.953-5.057 5.673-8.48.953-4.525 1.564-9.06 3.26-13.402a.27.27 0 00-.01-.17.269.269 0 00-.113-.13c-4.072-1.784-7.625-4.37-11.287-6.844-3.052-2.062-6.891-3.775-10.493-2.31a7.36 7.36 0 01.396-1.907.23.23 0 00.004-.13c.04.003.08-.006.115-.026 4.706-2.622 9.916.366 13.861 3.02zm-15.796 1.47c-.703 1.675-2.838 3.357-4.514 1.678-1.551-1.551-.192-3.626 1.378-4.392 1.263-.617 2.707-.745 4.068-1.056-.29 1.261-.428 2.572-.932 3.77zM67.482 20.773c.684 1.68.366 4.378-2.007 4.378-2.192 0-2.698-2.426-2.13-4.078.456-1.33 1.388-2.443 2.13-3.626.688 1.097 1.517 2.122 2.008 3.326h-.001zm-32.205 11.68c1.675.705 3.357 2.84 1.678 4.518-1.55 1.55-3.624.191-4.39-1.38-.617-1.263-.744-2.707-1.055-4.07 1.26.289 2.571.428 3.769.931l-.002.002zm-14.514 31.04c1.68-.684 4.377-.366 4.377 2.009 0 2.192-2.425 2.699-4.077 2.13-1.33-.456-2.442-1.388-3.625-2.131 1.1-.69 2.126-1.52 3.327-2.012l-.002.005zM32.44 95.712c.703-1.675 2.837-3.358 4.514-1.679 1.55 1.551.192 3.626-1.378 4.392-1.263.617-2.707.745-4.068 1.056.291-1.264.43-2.575.933-3.772l-.001.003zm31.028 14.519c-.684-1.68-.366-4.377 2.007-4.377 2.192 0 2.699 2.426 2.13 4.078-.456 1.33-1.387 2.443-2.13 3.626-.687-1.102-1.516-2.128-2.005-3.332l-.002.005zm32.204-11.68c-1.674-.704-3.356-2.84-1.677-4.517 1.55-1.55 3.624-.191 4.39 1.38.617 1.263.745 2.707 1.056 4.069-1.26-.293-2.57-.433-3.768-.936v.004zm14.512-31.04c-1.68.684-4.376.367-4.376-2.008 0-2.192 2.425-2.699 4.077-2.131 1.33.457 2.442 1.389 3.625 2.132-1.096.686-2.122 1.514-3.325 2.005l-.001.002zM77.358 8.61c4.488-.898 9.092-1.417 13.174-3.623 1.302 4.362 4.105 7.936 6.61 11.665 2.652 3.947 5.639 9.157 3.014 13.864a.196.196 0 00-.025.116.222.222 0 00-.13.004 7.396 7.396 0 01-1.908.4c1.469-3.604-.244-7.445-2.306-10.501-2.473-3.664-5.059-7.219-6.842-11.292a.265.265 0 00-.3-.122c-4.337 1.696-8.872 2.307-13.395 3.26-3.42.721-7.06 2.295-8.476 5.676a7.427 7.427 0 01-1.067-1.634.21.21 0 00-.087-.093.194.194 0 00.062-.098c1.433-5.088 7.085-6.704 11.676-7.623zM33.81 16.651c2.505-3.729 5.309-7.303 6.61-11.665 4.081 2.205 8.686 2.725 13.173 3.622 4.591.919 10.243 2.534 11.676 7.624.01.038.032.072.063.098a.215.215 0 00-.087.093 7.407 7.407 0 01-1.067 1.634c-1.417-3.38-5.056-4.954-8.476-5.675-4.524-.953-9.059-1.565-13.398-3.26a.264.264 0 00-.3.121c-1.783 4.074-4.369 7.629-6.841 11.292-2.062 3.053-3.774 6.894-2.31 10.497a7.352 7.352 0 01-1.907-.396.222.222 0 00-.13-.003.198.198 0 00-.025-.117c-2.62-4.707.367-9.918 3.019-13.865zM4.985 40.434c4.36-1.302 7.933-4.106 11.66-6.612 3.947-2.652 9.154-5.641 13.86-3.015a.2.2 0 00.116.025.221.221 0 00.004.13c.216.616.351 1.257.4 1.908-3.603-1.469-7.443.244-10.498 2.307-3.662 2.474-7.215 5.06-11.287 6.845a.264.264 0 00-.122.3c1.695 4.339 2.306 8.875 3.259 13.402.72 3.422 2.294 7.062 5.673 8.48a7.389 7.389 0 01-1.633 1.067.221.221 0 00-.094.087.191.191 0 00-.097-.063c-5.088-1.435-6.703-7.09-7.62-11.68-.897-4.492-1.416-9.097-3.62-13.18zm4.133 48.242a.265.265 0 00.122.3c4.072 1.784 7.626 4.37 11.287 6.844 3.053 2.062 6.891 3.775 10.493 2.31a7.345 7.345 0 01-.395 1.908.222.222 0 00-.004.13.195.195 0 00-.116.025c-4.704 2.626-9.914-.362-13.86-3.015-3.727-2.506-7.3-5.311-11.66-6.613 2.205-4.083 2.724-8.689 3.621-13.178.918-4.593 2.533-10.247 7.621-11.68a.194.194 0 00.098-.063.218.218 0 00.093.087 7.35 7.35 0 011.633 1.067c-3.379 1.417-4.952 5.058-5.673 8.48l-3.26 13.398zm44.476 33.716c-4.487.897-9.091 1.417-13.172 3.623-1.303-4.362-4.106-7.937-6.61-11.665-2.652-3.948-5.64-9.158-3.015-13.864a.2.2 0 00.025-.117.223.223 0 00.13-.003 7.416 7.416 0 011.908-.401c-1.469 3.605.244 7.446 2.306 10.502 2.473 3.663 5.058 7.218 6.842 11.291a.263.263 0 00.3.122c4.337-1.695 8.872-2.307 13.397-3.26 3.421-.721 7.06-2.295 8.477-5.675a7.386 7.386 0 011.066 1.634.23.23 0 00.087.093.192.192 0 00-.062.097c-1.437 5.087-7.089 6.705-11.68 7.621l.001.002zm43.55-8.042c-2.506 3.728-5.31 7.303-6.611 11.665-4.081-2.206-8.686-2.726-13.173-3.623-4.592-.918-10.243-2.534-11.677-7.624a.197.197 0 00-.063-.098.204.204 0 00.087-.093 7.446 7.446 0 011.068-1.634c1.416 3.381 5.055 4.955 8.476 5.675 4.523.954 9.058 1.566 13.395 3.261a.263.263 0 00.3-.122c1.783-4.073 4.37-7.628 6.842-11.292 2.061-3.053 3.773-6.894 2.309-10.496.65.046 1.292.179 1.907.396a.222.222 0 00.13.003.19.19 0 00.026.116c2.621 4.705-.366 9.914-3.018 13.864l.001.002zm28.824-23.783c-4.36 1.303-7.934 4.107-11.66 6.612-3.947 2.653-9.154 5.642-13.86 3.016a.203.203 0 00-.116-.026.222.222 0 00-.003-.13 7.417 7.417 0 01-.401-1.908c3.603 1.47 7.443-.244 10.498-2.307 3.662-2.474 7.215-5.06 11.287-6.844a.262.262 0 00.122-.3c-1.695-4.34-2.306-8.876-3.259-13.4-.72-3.423-2.294-7.063-5.673-8.48a7.377 7.377 0 011.634-1.067.213.213 0 00.09-.086.172.172 0 00.038.031c.014.01.03.018.046.023.006 0 .01.006.015.008l.021.006c5.071 1.445 6.683 7.09 7.6 11.675.896 4.486 1.415 9.092 3.619 13.175l.002.002z" fill="#6750D6"/><path d="M111.774 19.184c-.469 4.517.739 8.893 1.637 13.284a51.244 51.244 0 00-.309-.189c-3.635-2.192-8.179-4.108-12.26-2.158 1.95-4.084.033-8.629-2.158-12.264a19.72 19.72 0 00-.189-.31c4.39.899 8.764 2.105 13.279 1.637zM65.476 0c2.859 3.527 6.808 5.765 10.546 8.237a53.61 53.61 0 00-.668.165c-4.014 1.028-8.414 2.91-9.878 7.062-1.464-4.152-5.864-6.034-9.878-7.062a44.811 44.811 0 00-.668-.165C58.667 5.765 62.617 3.527 65.476 0zM19.177 19.184c4.516.47 8.89-.738 13.28-1.637l-.19.31c-2.19 3.635-4.107 8.18-2.157 12.264-4.082-1.95-8.625-.034-12.26 2.158a41.25 41.25 0 00-.309.189c.898-4.393 2.107-8.767 1.636-13.284zM0 65.5c3.526-2.86 5.764-6.812 8.234-10.55.054.223.108.446.165.668 1.027 4.016 2.909 8.417 7.06 9.882-4.151 1.465-6.033 5.864-7.06 9.881a46.8 46.8 0 00-.165.67C5.764 72.31 3.526 68.358 0 65.5zm19.177 46.315c.47-4.517-.738-8.892-1.636-13.284l.31.19c3.634 2.191 8.178 4.108 12.259 2.158-1.95 4.083-.033 8.628 2.157 12.264l.19.31c-4.389-.899-8.764-2.107-13.28-1.638zM65.476 131c-2.859-3.527-6.81-5.766-10.546-8.237.223-.053.446-.108.668-.165 4.014-1.028 8.414-2.91 9.878-7.062 1.464 4.152 5.864 6.034 9.878 7.062.222.057.445.112.668.165-3.738 2.471-7.687 4.71-10.546 8.237zm46.298-19.185c-4.515-.469-8.889.739-13.279 1.638l.19-.31c2.19-3.636 4.106-8.181 2.157-12.264 4.082 1.95 8.625.033 12.26-2.159l.309-.189c-.898 4.392-2.106 8.767-1.637 13.284zm10.945-35.765a38.407 38.407 0 00-.165-.669c-1.027-4.015-2.908-8.416-7.059-9.881 4.151-1.465 6.032-5.866 7.059-9.882.057-.222.112-.445.165-.669 2.469 3.74 4.707 7.691 8.234 10.551-3.527 2.86-5.765 6.811-8.234 10.55z" fill="#190A4E"/><path d="M95.495 46.025c2.292 1.54 4.489 3.265 7.169 4.065-1.356 2.51-1.675 5.342-2.227 8.102-.564 2.824-1.556 6.3-4.684 7.182-.004 0-.007.004-.01.005a.128.128 0 00-.051.032.134.134 0 00-.056-.052 4.555 4.555 0 01-1.004-.656c2.077-.871 3.045-3.11 3.489-5.212.586-2.782.961-5.571 2.003-8.237a.155.155 0 00-.005-.106.16.16 0 00-.069-.08c-2.504-1.097-4.688-2.687-6.94-4.208-1.876-1.267-4.236-2.32-6.45-1.42.029-.4.11-.794.243-1.173a.13.13 0 00.002-.08.127.127 0 00.072-.015c2.89-1.615 6.093.222 8.518 1.853zm-9.71.903c-.433 1.03-1.744 2.065-2.776 1.032-.953-.953-.118-2.229.848-2.699a11.325 11.325 0 012.5-.649 13.918 13.918 0 01-.573 2.316zM66.71 38.004c.42 1.033.226 2.691-1.233 2.691-1.35 0-1.659-1.491-1.31-2.507.35-.79.79-1.539 1.31-2.23.469.646.88 1.33 1.232 2.046h.001zm-19.798 7.18c1.029.432 2.064 1.744 1.032 2.776-.954.953-2.229.118-2.699-.848a11.303 11.303 0 01-.648-2.501c.786.124 1.56.316 2.313.573h.002zm-8.921 19.08c1.033-.42 2.69-.226 2.69 1.234 0 1.35-1.489 1.66-2.506 1.31-.79-.35-1.538-.79-2.229-1.31a13.86 13.86 0 012.043-1.233l.002-.002zm7.177 19.805c.432-1.029 1.743-2.064 2.776-1.032.953.954.117 2.23-.848 2.7-.806.31-1.645.528-2.5.648.123-.786.314-1.56.57-2.314l.002-.002zm19.073 8.925c-.419-1.033-.225-2.692 1.234-2.692 1.35 0 1.659 1.49 1.31 2.508-.35.79-.79 1.538-1.31 2.229a13.857 13.857 0 01-1.234-2.043v-.002zm19.799-7.18c-1.029-.432-2.064-1.744-1.031-2.777.953-.953 2.227-.118 2.698.848.31.807.528 1.646.648 2.502a13.869 13.869 0 01-2.316-.571v-.002zm8.921-19.08c-1.032.419-2.69.225-2.69-1.234 0-1.35 1.488-1.66 2.506-1.31.79.35 1.538.79 2.229 1.31-.645.47-1.329.882-2.044 1.234zm1.21-27.503c0 .042.004.085.006.128l-.01-.128h.004zm-2.435-2.436v.004l-.127-.01.127.006zm-18.955-6.269c2.76-.552 5.59-.871 8.099-2.227.8 2.681 2.524 4.88 4.064 7.171 1.628 2.427 3.467 5.63 1.853 8.524a.118.118 0 00-.016.07.14.14 0 00-.08.003 4.536 4.536 0 01-1.174.247c.903-2.216-.15-4.578-1.417-6.457-1.52-2.252-3.11-4.437-4.207-6.941a.162.162 0 00-.186-.075c-2.666 1.042-5.454 1.418-8.234 2.004-2.102.443-4.34 1.41-5.21 3.49a4.549 4.549 0 01-.655-1.004.13.13 0 00-.054-.056.118.118 0 00.038-.06c.881-3.132 4.356-4.126 7.178-4.69l.001.001zm-20.375-1.524l-.12-.04.117.038.003.002zm-3.434 1.341l-.059.115.055-.116.004.001zm-2.961 5.127c1.54-2.292 3.264-4.49 4.063-7.17 2.51 1.355 5.34 1.674 8.099 2.226 2.822.564 6.297 1.558 7.18 4.687.006.023.02.044.038.06a.13.13 0 00-.054.056 4.54 4.54 0 01-.656 1.005c-.87-2.078-3.108-3.046-5.21-3.49-2.78-.586-5.568-.962-8.234-2.005a.163.163 0 00-.186.075c-1.096 2.504-2.686 4.69-4.206 6.942-1.267 1.877-2.32 4.238-1.42 6.453-.4-.028-.794-.11-1.172-.243a.14.14 0 00-.08-.003.122.122 0 00-.016-.07c-1.616-2.894.22-6.098 1.85-8.524l.004.001zm-17.72 14.621c2.68-.8 4.876-2.524 7.167-4.065 2.426-1.629 5.63-3.468 8.52-1.854a.125.125 0 00.072.016.133.133 0 000 .08c.134.379.217.773.247 1.174-2.215-.903-4.577.15-6.454 1.419-2.251 1.52-4.436 3.11-6.94 4.207a.164.164 0 00-.074.186c1.042 2.668 1.418 5.457 2.003 8.237.444 2.104 1.41 4.342 3.49 5.212a4.538 4.538 0 01-1.005.656.131.131 0 00-.056.054.117.117 0 00-.06-.039c-3.128-.884-4.121-4.358-4.685-7.182-.554-2.76-.874-5.592-2.23-8.102l.004.001zm7.167 34.884c-2.29-1.54-4.487-3.265-7.168-4.065 1.355-2.51 1.675-5.342 2.226-8.102.565-2.823 1.557-6.3 4.686-7.182a.12.12 0 00.06-.038.127.127 0 00.056.053c.362.174.7.394 1.004.657-2.077.871-3.045 3.11-3.49 5.212-.585 2.782-.96 5.57-2.003 8.237a.164.164 0 00.075.186c2.504 1.097 4.688 2.687 6.94 4.208 1.876 1.267 4.236 2.32 6.45 1.42-.029.4-.11.794-.243 1.172a.133.133 0 000 .08.122.122 0 00-.072.016c-2.896 1.613-6.096-.224-8.524-1.854h.003zm22.715 15.5c-2.759.552-5.59.871-8.099 2.228-.8-2.682-2.524-4.88-4.063-7.172-1.63-2.427-3.467-5.63-1.854-8.523a.122.122 0 00.016-.072.14.14 0 00.08-.002 4.577 4.577 0 011.174-.246c-.903 2.216.15 4.578 1.418 6.456 1.52 2.252 3.11 4.438 4.206 6.942a.161.161 0 00.08.069.16.16 0 00.106.006c2.667-1.043 5.455-1.419 8.234-2.005 2.103-.443 4.34-1.41 5.21-3.49.262.305.483.642.656 1.005a.13.13 0 00.054.056.122.122 0 00-.039.06c-.885 3.13-4.36 4.123-7.182 4.687l.003.001zm26.773-4.944c-1.54 2.292-3.264 4.49-4.064 7.172-2.51-1.357-5.34-1.676-8.099-2.228-2.822-.564-6.297-1.557-7.18-4.686a.118.118 0 00-.037-.06.13.13 0 00.053-.057c.173-.362.394-.7.656-1.004.87 2.077 3.108 3.045 5.21 3.49 2.78.586 5.569.962 8.234 2.004a.162.162 0 00.186-.075c1.096-2.504 2.686-4.69 4.206-6.942 1.267-1.877 2.32-4.238 1.42-6.453.4.029.793.11 1.172.244a.14.14 0 00.08.002.118.118 0 00.015.071c1.61 2.89-.225 6.094-1.856 8.521l.004.001zm17.72-14.621c-2.68.8-4.877 2.525-7.168 4.066-2.426 1.628-5.63 3.467-8.52 1.853a.122.122 0 00-.072-.015.13.13 0 00-.002-.08 4.564 4.564 0 01-.246-1.174c2.215.902 4.576-.15 6.453-1.419 2.252-1.52 4.436-3.11 6.939-4.208a.158.158 0 00.07-.08.155.155 0 00.005-.106c-1.042-2.667-1.418-5.456-2.003-8.237-.443-2.103-1.41-4.341-3.49-5.212a4.55 4.55 0 011.005-.656.135.135 0 00.056-.053.107.107 0 00.023.02.11.11 0 00.028.013.081.081 0 00.01.005l.012.004c3.117.889 4.109 4.358 4.672 7.178.55 2.759.869 5.59 2.225 8.1l.003.001z" fill="#6750D6"/><path d="M93.94 37.026c-.29 2.777.453 5.467 1.005 8.167l-.19-.116c-2.233-1.35-5.027-2.526-7.536-1.327 1.198-2.513.02-5.305-1.327-7.54l-.115-.19c2.697.552 5.386 1.295 8.163 1.006zM65.476 25.232c1.757 2.169 4.187 3.545 6.484 5.063-.14.033-.275.067-.411.102-2.466.631-5.173 1.788-6.073 4.341-.9-2.553-3.605-3.71-6.073-4.341a27.409 27.409 0 00-.41-.102c2.297-1.518 4.725-2.894 6.483-5.063zM37.013 37.026c2.776.289 5.465-.454 8.163-1.006l-.116.19c-1.347 2.234-2.525 5.03-1.326 7.539-2.512-1.2-5.303-.02-7.536 1.327l-.19.116c.551-2.699 1.293-5.39 1.005-8.166zM25.223 65.5c2.168-1.758 3.543-4.188 5.061-6.486l.102.411c.631 2.467 1.788 5.175 4.34 6.075-2.552.9-3.709 3.606-4.34 6.075-.035.136-.069.273-.102.41-1.518-2.298-2.893-4.726-5.061-6.485zm11.79 28.473c.288-2.777-.454-5.467-1.006-8.166l.19.116c2.233 1.347 5.027 2.526 7.536 1.327-1.198 2.51-.02 5.305 1.327 7.54l.116.19c-2.698-.553-5.385-1.295-8.163-1.007zm28.463 11.794c-1.758-2.168-4.187-3.544-6.484-5.062.14-.033.275-.067.411-.102 2.466-.632 5.173-1.788 6.073-4.341.9 2.552 3.605 3.71 6.073 4.341.136.035.273.069.41.102-2.297 1.518-4.726 2.894-6.483 5.062zM93.94 93.973c-2.777-.288-5.465.454-8.164 1.007l.116-.19c1.349-2.234 2.525-5.03 1.327-7.54 2.509 1.2 5.303.021 7.536-1.327l.19-.115c-.552 2.699-1.295 5.388-1.005 8.165zm6.728-21.987a27.382 27.382 0 00-.102-.411c-.631-2.467-1.788-5.175-4.34-6.075 2.552-.9 3.709-3.607 4.34-6.075l.102-.411c1.517 2.298 2.893 4.728 5.061 6.486-2.168 1.76-3.544 4.187-5.061 6.486z" fill="#190A4E"/></svg>