<svg width="27" height="24" fill="none" xmlns="http://www.w3.org/2000/svg"><path fill-rule="evenodd" clip-rule="evenodd" d="M2.031 12c0-6.627 5.373-12 12-12s12 5.373 12 12-5.372 12-12 12c-1.518 0-2.973-.282-4.313-.799-.115-.044-.181-.07-.23-.087l-.016-.006h-.005l-.199.02-6.468.669a9.261 9.261 0 01-.832.064c-.235.003-.658-.01-1.063-.258A1.895 1.895 0 01.02 22.28c-.074-.47.076-.865.168-1.08.093-.218.228-.468.357-.707L2.63 16.63a9.729 9.729 0 00.176-.334A11.988 11.988 0 012.031 12zm12-9.474A9.474 9.474 0 004.557 12a9.46 9.46 0 00.494 3.028l.032.092c.102.302.223.656.248.976.023.292.002.538-.07.822-.08.31-.24.606-.37.845l-.037.068-1.839 3.404 5.993-.62.042-.004c.15-.016.337-.036.52-.029.167.007.308.026.47.063.18.041.374.116.537.18l.05.019a9.448 9.448 0 003.404.63 9.474 9.474 0 100-18.948zM7.084 9.474c0-.698.565-1.263 1.263-1.263H13.4a1.263 1.263 0 010 2.526H8.346a1.263 1.263 0 01-1.263-1.263zm0 4.42c0-.697.565-1.262 1.263-1.262h8.842a1.263 1.263 0 110 2.526H8.347a1.263 1.263 0 01-1.263-1.263z" fill="#CCC8FF"/></svg>