<svg width="20" height="24" fill="none" xmlns="http://www.w3.org/2000/svg"><path fill-rule="evenodd" clip-rule="evenodd" d="M9.818 2.182a7.636 7.636 0 00-7.636 7.636c0 2.508 1.37 4.421 3.241 6.37.448.466.912.923 1.387 1.39l.053.052c.489.48.987.972 1.462 1.473a18.939 18.939 0 011.493 1.75 18.82 18.82 0 011.493-1.75 63.5 63.5 0 011.462-1.473l.054-.052c.474-.467.938-.924 1.386-1.39 1.871-1.949 3.242-3.862 3.242-6.37a7.636 7.636 0 00-7.637-7.636zM0 9.818C0 4.396 4.396 0 9.818 0c5.423 0 9.818 4.396 9.818 9.818 0 3.403-1.902 5.853-3.85 7.881-.469.49-.953.966-1.422 1.427l-.06.06c-.492.483-.965.95-1.41 1.419-.896.943-1.627 1.845-2.1 2.792a1.091 1.091 0 01-1.952 0c-.473-.947-1.204-1.849-2.1-2.792-.445-.47-.917-.936-1.409-1.42l-.06-.06c-.47-.46-.954-.936-1.424-1.426C1.902 15.671 0 13.221 0 9.82zm9.818-2.727a2.182 2.182 0 100 4.364 2.182 2.182 0 000-4.364zM5.455 9.273a4.364 4.364 0 118.727 0 4.364 4.364 0 01-8.727 0z" fill="#8F87C6"/></svg>