<svg width="24" height="20" fill="none" xmlns="http://www.w3.org/2000/svg"><path fill-rule="evenodd" clip-rule="evenodd" d="M0 2.4a2.4 2.4 0 114.8 0 2.4 2.4 0 01-4.8 0zm7.2 0a1.2 1.2 0 011.2-1.2h14.4a1.2 1.2 0 010 2.4H8.4a1.2 1.2 0 01-1.2-1.2zM0 9.6a2.4 2.4 0 114.8 0 2.4 2.4 0 01-4.8 0zm7.2 0a1.2 1.2 0 011.2-1.2h14.4a1.2 1.2 0 010 2.4H8.4a1.2 1.2 0 01-1.2-1.2zM0 16.8a2.4 2.4 0 114.8 0 2.4 2.4 0 01-4.8 0zm7.2 0a1.2 1.2 0 011.2-1.2h14.4a1.2 1.2 0 010 2.4H8.4a1.2 1.2 0 01-1.2-1.2z" fill="url(#paint0_linear_211_872)"/><defs><linearGradient id="paint0_linear_211_872" x1="12" y1="0" x2="12" y2="19.2" gradientUnits="userSpaceOnUse"><stop stop-color="#C5BDFF"/><stop offset="1" stop-color="#6750D6"/></linearGradient></defs></svg>