<svg width="26" height="24" fill="none" xmlns="http://www.w3.org/2000/svg"><path fill-rule="evenodd" clip-rule="evenodd" d="M12.134.076a2.313 2.313 0 011.178 0c.448.118.828.406 1.13.635l.085.064.702.526.27.202.135.102.004.003 7.032 5.274 2.313 1.735a1.157 1.157 0 01-1.388 1.85l-.462-.347v9.067c0 .61 0 1.136-.036 1.569-.037.457-.12.912-.343 1.35a3.47 3.47 0 01-1.516 1.516c-.438.223-.892.305-1.35.343-.433.035-.959.035-1.569.035H7.127c-.61 0-1.136 0-1.57-.035-.457-.038-.911-.12-1.35-.343a3.47 3.47 0 01-1.515-1.517c-.223-.437-.306-.892-.343-1.35-.036-.432-.036-.958-.036-1.568V10.12l-.462.348A1.157 1.157 0 01.463 8.616l9.345-7.01c.002 0 .004-.002.006-.004l.134-.1c.09-.069.18-.136.269-.202l.702-.526.084-.064c.303-.23.683-.517 1.131-.635zm-7.507 8.31v10.756c0 .667 0 1.098.027 1.425.026.314.07.431.099.488.11.218.287.395.505.506.057.029.174.072.488.098.328.027.758.028 1.425.028h.925v-7.44c0-.291 0-.576.02-.816.022-.265.073-.577.233-.89.221-.436.575-.79 1.01-1.012.314-.16.626-.21.89-.232.242-.02.526-.02.818-.02h3.312c.292 0 .576 0 .817.02.264.021.577.072.89.232.436.222.79.576 1.011 1.011.16.314.211.626.233.89.02.241.02.526.02.818v7.439h.925c.667 0 1.097-.001 1.425-.028.314-.026.43-.07.488-.098.218-.111.394-.288.505-.506.03-.057.073-.174.099-.488.026-.327.027-.758.027-1.425V8.386l-6.57-4.928c-.878-.659-1.066-.774-1.232-.817a1.157 1.157 0 00-.588 0c-.166.043-.354.158-1.233.817l-6.57 4.928zm10.41 13.3v-7.402c0-.343-.002-.53-.013-.665l-.001-.015-.015-.002a9.484 9.484 0 00-.666-.012h-3.238c-.343 0-.531.001-.666.012l-.015.002-.001.015a9.483 9.483 0 00-.012.665v7.403h4.626z" fill="#fff"/></svg>