<svg width="24" height="24" fill="none" xmlns="http://www.w3.org/2000/svg"><path fill-rule="evenodd" clip-rule="evenodd" d="M15.619.088c-2.7.335-5.27 1.405-7.4 3.079-.666.524-2.077 1.97-2.58 2.646-1.41 1.89-2.283 3.876-2.747 6.237-.166.847-.167.879-.19 4.105l-.024 3.251-1.265 1.282C.078 22.04 0 22.152 0 22.713 0 23.37.62 23.996 1.274 24c.573.003.68-.07 2.037-1.413l1.28-1.266 3.25-.026c2.995-.025 3.304-.037 3.967-.161 2.387-.447 4.462-1.352 6.367-2.776.728-.544 2.22-2.02 2.735-2.703 1.68-2.233 2.678-4.681 2.987-7.328.14-1.19.136-7.172-.003-7.508a1.372 1.372 0 00-.684-.707c-.234-.109-.464-.116-3.593-.11-2.337.003-3.54.03-3.998.086zm.35 2.66a12.033 12.033 0 00-9.97 8.029c-.488 1.424-.683 2.868-.687 5.096l-.002.906 4.952-4.952c3.468-3.47 5.02-4.98 5.183-5.048.491-.203 1.138-.066 1.498.318.351.374.462.976.266 1.448-.067.163-1.577 1.716-5.044 5.187l-4.948 4.955.905-.002c1.412-.002 2.73-.104 3.573-.274 5.113-1.036 8.95-5.236 9.544-10.446.035-.31.064-1.625.065-2.923v-2.36l-2.452.008c-1.349.004-2.646.03-2.883.058z" fill="#CCC8FF"/></svg>