<svg width="24" height="20" fill="none" xmlns="http://www.w3.org/2000/svg"><path fill-rule="evenodd" clip-rule="evenodd" d="M0 2.4a2.4 2.4 0 114.8 0 2.4 2.4 0 01-4.8 0zm7.2 0a1.2 1.2 0 011.2-1.2h14.4a1.2 1.2 0 010 2.4H8.4a1.2 1.2 0 01-1.2-1.2zM0 9.6a2.4 2.4 0 114.8 0 2.4 2.4 0 01-4.8 0zm7.2 0a1.2 1.2 0 011.2-1.2h14.4a1.2 1.2 0 010 2.4H8.4a1.2 1.2 0 01-1.2-1.2zM0 16.8a2.4 2.4 0 114.8 0 2.4 2.4 0 01-4.8 0zm7.2 0a1.2 1.2 0 011.2-1.2h14.4a1.2 1.2 0 010 2.4H8.4a1.2 1.2 0 01-1.2-1.2z" fill="#fff"/></svg>